<svg xmlns="http://www.w3.org/2000/svg" width="1024" height="967" viewBox="0 0 1024 967">
	<g fill="none" stroke-width="1.2" fill-rule="evenodd" stroke="#FF1C3B">
		<path d="M853.964 10.218c22.576 6.05 37.917 14.913 46.96 26.892 17.879 23.687 10.071 57.602 1.035 96.873-16.136 70.114-38.236 166.136 73.774 266.708 36.996 33.214 50.843 51.784 46.3 62.084-4.932 11.187-29.535 8.742-60.686 5.643-44.352-4.41-99.548-9.902-107.202 24.085-11.332 50.34 17.495 59.415 48.019 69.02 18.658 5.871 37.953 11.944 46.037 28.457 6.238 12.743 5.07 30.26-3.573 53.555-41.293 111.3-192.94 314.155-300.348 310.29-41.145-1.47-70.925-32.876-88.52-93.322-12.015-41.27-22.797-62.118-33.182-63.774-9.487-1.51-20.101 14.054-31.343 30.53-15.356 22.518-32.763 48.034-57.543 50.424-15.219 1.466-30.863-5.987-47.828-22.771-20.126-19.916-38.986-29.213-57.656-28.407-33.001 1.412-61.74 35.185-89.53 67.846-41.96 49.314-85.353 100.31-147.629 52.216C47.11 912.639 15.712 861.97 4.903 807.55-8.49 740.109 9.475 668.728 56.856 601.125c138.263-197.26 352.791-285.202 454.496-272.846 34.52 4.197 60.042-.853 78.03-15.435 31.313-25.385 35.783-76.344 40.516-130.293 7.76-88.468 16.554-188.734 156.47-181.545 27.36 1.404 49.742 4.428 67.596 9.212z" opacity=".2"/>
		<path d="M844.03 29.191c21.887 5.865 36.761 14.45 45.53 26.042 17.34 22.924 9.786 55.74 1.045 93.736-15.609 67.846-36.987 160.762 71.647 258.145 35.874 32.157 49.305 50.129 44.909 60.087-4.776 10.817-28.623 8.439-58.812 5.426-43.001-4.291-96.517-9.63-103.92 23.267-10.968 48.72 16.988 57.513 46.583 66.829 18.093 5.691 36.795 11.575 44.637 27.553 6.05 12.332 4.925 29.279-3.44 51.815-39.973 107.686-186.872 303.914-290.986 300.125-39.88-1.449-68.756-31.846-85.846-90.344-11.668-39.955-22.234-60.166-32.201-61.741-9.201-1.464-19.488 13.593-30.378 29.535-14.874 21.78-31.734 46.464-55.748 48.76-14.754 1.41-29.915-5.803-46.363-22.052-19.522-19.282-37.809-28.285-55.915-27.522-31.994 1.353-59.837 34.024-86.76 65.622-40.651 47.697-82.677 97.015-143.067 50.458-42.607-32.854-73.065-81.898-83.567-134.565-13.016-65.269 4.366-134.335 50.263-199.729 133.927-190.82 341.836-275.823 440.429-263.813 33.466 4.075 58.208-.801 75.64-14.905 30.347-24.554 34.655-73.867 39.217-126.075 7.48-85.602 15.957-182.623 151.577-175.6 26.523 1.373 48.22 4.31 65.526 8.946z" opacity=".2"/>
		<path d="M836.176 47.267c21.22 5.686 35.636 14.007 44.138 25.242 16.812 22.222 9.496 54.024 1.023 90.853-15.13 65.765-35.85 155.833 69.497 250.241 34.782 31.174 47.807 48.588 43.55 58.236-4.626 10.477-27.747 8.17-57.018 5.247-41.698-4.165-93.594-9.346-100.77 22.551-10.632 47.238 16.479 55.766 45.183 64.798 17.536 5.517 35.672 11.223 43.275 26.705 5.867 11.95 4.778 28.376-3.33 50.216-38.752 104.374-181.17 294.566-282.113 290.885-38.662-1.416-66.663-30.88-83.23-87.572-11.32-38.734-21.542-58.317-31.243-59.86-8.934-1.42-18.907 13.176-29.466 28.632-14.42 21.108-30.763 45.03-54.041 47.254-14.3 1.37-29-5.626-44.947-21.377-18.933-18.698-36.67-27.425-54.23-26.687-31.028 1.31-58.02 32.979-84.127 63.604-39.408 46.226-80.156 94.027-138.699 48.896-41.316-31.845-70.852-79.387-81.04-130.435-12.622-63.261 4.222-130.206 48.715-193.583 129.844-184.954 331.424-267.325 427.022-255.68 32.454 3.956 56.446-.772 73.351-14.441 29.424-23.805 33.597-71.608 38.019-122.215C632.94 125.81 641.148 31.775 772.639 38.59c25.717 1.336 46.758 4.18 63.537 8.676z" opacity=".2"/><path d="M828.635 64.292c20.525 5.5 34.474 13.555 42.696 24.428 16.257 21.505 9.173 52.3.968 87.96-14.653 63.683-34.718 150.902 67.203 242.3 33.643 30.171 46.241 47.025 42.122 56.363-4.477 10.139-26.842 7.91-55.155 5.086-40.357-4.023-90.575-9.03-97.53 21.865-10.294 45.751 15.942 54.008 43.72 62.75 16.966 5.336 34.509 10.855 41.859 25.843 5.672 11.565 4.613 27.466-3.233 48.611C873.773 740.565 735.94 924.746 638.269 921.2c-37.402-1.358-64.488-29.879-80.505-84.766-10.947-37.51-20.843-56.438-30.23-57.965-8.65-1.376-18.305 12.767-28.527 27.738-13.957 20.436-29.773 43.603-52.292 45.758-13.83 1.327-28.049-5.441-43.477-20.686-18.315-18.105-35.483-26.557-52.475-25.833-30.026 1.273-56.155 31.943-81.424 61.606-38.133 44.764-77.57 91.045-134.2 47.37-39.963-30.825-68.533-76.85-78.381-126.275-12.2-61.25 4.11-126.066 47.175-187.442C229.6 421.6 424.661 341.805 517.153 353.06c31.41 3.822 54.626-.755 70.988-14.003 28.482-23.056 32.53-69.343 36.816-118.35 7.026-80.332 14.986-171.378 142.206-164.806 24.881 1.286 45.236 4.04 61.472 8.39z" opacity=".3"/>
		<path d="M819.276 81.25c19.811 5.309 33.271 13.085 41.203 23.589 15.682 20.77 8.836 50.524.908 84.976-14.162 61.538-33.557 145.82 64.813 234.11 32.465 29.137 44.62 45.419 40.644 54.435-4.318 9.79-25.903 7.638-53.23 4.918-38.958-3.877-87.443-8.702-94.167 21.165-9.955 44.217 15.378 52.19 42.195 60.631 16.374 5.154 33.304 10.483 40.394 24.954 5.472 11.171 4.447 26.532-3.133 46.961-36.239 97.66-169.333 275.649-263.608 272.248-36.108-1.308-62.235-28.85-77.684-81.873-10.56-36.244-20.168-54.543-29.175-56.006-8.36-1.33-17.686 12.338-27.562 26.811-13.472 19.749-28.745 42.131-50.478 44.221-13.339 1.282-27.068-5.251-41.953-19.973-17.68-17.489-34.25-25.65-50.661-24.951-28.991 1.24-54.224 30.885-78.626 59.55-36.818 43.26-74.885 87.998-129.54 45.804-38.57-29.77-66.134-74.23-75.625-121.977-11.766-59.177 3.999-121.805 45.583-181.119C240.93 426.642 429.24 349.491 518.521 360.346c30.317 3.687 52.738-.746 68.541-13.55 27.501-22.288 31.42-67.017 35.573-114.373 6.8-77.613 14.51-165.58 137.303-159.262 24.019 1.236 43.665 3.89 59.338 8.09z" opacity=".3"/>
		<path d="M810.732 98.275c19.12 5.123 32.107 12.628 39.761 22.773 15.132 20.059 8.516 48.8.859 82.083-13.687 59.46-32.432 140.895 62.515 226.174 31.325 28.138 43.057 43.857 39.217 52.56-4.166 9.449-24.997 7.381-51.37 4.759-37.61-3.74-84.421-8.392-90.921 20.475-9.623 42.738 14.835 50.434 40.727 58.585 15.803 4.972 32.143 10.115 38.98 24.09 5.276 10.788 4.282 25.624-3.039 45.358-35 94.356-163.511 266.33-254.511 263.065-34.845-1.254-60.056-27.851-74.957-79.068-10.185-35.016-19.402-52.722-28.16-54.11-8.078-1.282-17.085 11.927-26.625 25.914-13.009 19.078-27.755 40.704-48.726 42.728-12.882 1.243-26.122-5.063-40.483-19.283-17.065-16.896-33.058-24.779-48.908-24.098-27.994 1.205-52.358 29.853-75.925 57.557-35.547 41.791-72.306 85.01-125.038 44.275-37.22-28.75-63.817-71.694-72.97-117.817-11.338-57.163 3.89-117.67 44.04-174.973 117.184-167.24 298.974-241.814 385.15-231.348 29.271 3.556 50.919-.734 66.178-13.109 26.557-21.541 30.354-64.757 34.37-110.512 6.581-74.977 14.043-159.958 132.561-153.88 23.188 1.191 42.148 3.749 57.275 7.802z" opacity=".4"/>
		<path d="M801.93 116.266c18.428 4.938 30.948 12.168 38.324 21.933 14.59 19.315 8.22 46.988.848 79.028-13.177 57.257-31.221 135.666 60.331 217.818 30.2 27.1 41.507 42.234 37.815 50.611-4.007 9.085-24.085 7.085-49.501 4.552-36.263-3.61-81.39-8.101-87.649 19.704-9.266 41.16 14.314 48.584 39.283 56.439 15.23 4.792 30.978 9.749 37.573 23.2 5.088 10.39 4.135 24.67-2.916 43.666-33.711 90.842-157.526 256.397-245.241 253.228-33.564-1.21-57.886-26.833-72.262-76.15-9.83-33.732-18.767-50.807-27.171-52.12-7.795-1.24-16.477 11.48-25.67 24.95-12.533 18.365-26.738 39.182-46.948 41.125-12.409 1.194-25.171-4.883-39.016-18.576-16.46-16.278-31.881-23.873-47.161-23.222-26.989 1.15-50.467 28.732-73.175 55.403-34.25 40.227-69.657 81.828-120.494 42.596-35.887-27.693-61.533-69.05-70.368-113.463-10.948-55.04 3.714-113.293 42.4-168.459 112.9-160.998 288.103-232.753 371.172-222.65 28.218 3.43 49.087-.691 63.794-12.607 25.6-20.738 29.244-62.352 33.104-106.413 6.324-72.189 13.493-154.009 127.72-148.122 22.349 1.151 40.63 3.623 55.209 7.53z" opacity=".4"/>
		<path d="M794.39 134.292c17.732 4.751 29.78 11.717 36.88 21.12 14.034 18.599 7.9 45.263.794 76.132-12.698 55.176-30.087 130.74 58.033 209.88 29.064 26.1 39.947 40.673 36.392 48.737-3.86 8.747-23.182 6.824-47.646 4.392-34.912-3.47-78.364-7.79-84.4 19.018-8.934 39.672 13.775 46.822 37.816 54.389 14.662 4.612 29.819 9.382 36.158 22.34 4.897 10 3.973 23.759-2.818 42.06-32.472 87.533-151.71 247.077-236.144 244.043-32.325-1.164-55.71-25.84-69.534-73.346-9.462-32.502-18.02-48.959-26.158-50.224-7.515-1.192-15.878 11.072-24.734 24.054-12.068 17.696-25.75 37.753-45.198 39.63-11.942 1.149-24.221-4.7-37.544-17.886-15.849-15.683-30.698-23.003-45.408-22.369-25.99 1.117-48.605 27.7-70.476 53.407-32.977 38.765-67.077 78.85-115.99 41.071-34.537-26.676-59.217-66.514-67.71-109.303-10.526-53.027 3.601-109.155 40.857-162.314 108.727-155.153 277.407-224.33 357.374-214.617 27.17 3.304 47.264-.676 61.428-12.164 24.656-19.992 28.176-60.096 31.9-102.55 6.105-69.551 13.026-148.384 122.98-142.74 21.515 1.103 39.112 3.479 53.147 7.24z" opacity=".4"/>
		<path d="M785.534 150.367c17.068 4.573 28.663 11.274 35.494 20.323 13.508 17.89 7.606 43.544.77 73.246-12.218 53.095-28.953 125.81 55.886 201.979 27.971 25.11 38.446 39.13 35.027 46.884-3.705 8.404-22.3 6.556-45.84 4.212-33.617-3.343-75.45-7.505-81.261 18.302-8.596 38.192 13.269 45.073 36.418 52.36 14.105 4.44 28.692 9.032 34.793 21.493 4.71 9.619 3.827 22.855-2.706 40.46-31.25 84.225-146 237.728-227.27 234.804-31.091-1.108-53.612-24.861-66.925-70.573-9.107-31.281-17.371-47.077-25.196-48.344-7.242-1.15-15.294 10.653-23.82 23.152-11.614 17.025-24.777 36.323-43.492 38.122-11.488 1.105-23.307-4.521-36.127-17.209-15.257-15.096-29.563-22.14-43.722-21.531-25.024 1.071-46.793 26.65-67.843 51.388-31.734 37.295-64.552 75.848-111.626 39.51-33.246-25.67-57.002-64.005-65.18-105.175-10.135-51.022 3.457-105.03 39.31-156.174 104.64-149.283 266.995-215.83 343.964-206.478 26.158 3.177 45.503-.65 59.143-11.707 23.736-19.238 27.119-57.83 30.701-98.69 5.87-66.915 12.52-142.766 118.348-137.324 20.711 1.065 37.648 3.351 51.154 6.97z" opacity=".5"/>
		<path d="M778.55 168.425c16.4 4.395 27.547 10.827 34.114 19.509 12.982 17.174 7.32 41.782.762 70.284-11.723 50.95-27.777 120.73 53.793 193.867 26.887 24.104 36.957 37.558 33.678 44.989-3.554 8.057-21.419 6.27-44.036 4.018-32.311-3.226-72.526-7.234-78.103 17.543-8.25 36.663 12.772 43.278 35.026 50.28 13.559 4.267 27.575 8.675 33.44 20.631 4.53 9.23 3.684 21.927-2.587 38.815-29.997 80.812-140.21 228.074-218.303 225.235-29.878-1.092-51.523-23.878-64.334-67.743-8.766-30.03-16.708-45.216-24.245-46.411-6.97-1.113-14.707 10.216-22.898 22.214-11.151 16.33-23.792 34.838-41.768 36.56-11.04 1.058-22.396-4.348-34.719-16.525-14.671-14.497-28.423-21.265-42.036-20.684-24.057 1.017-44.967 25.558-65.192 49.293-30.476 35.77-61.996 72.752-107.236 37.87-31.959-24.645-54.804-61.437-62.678-100.95-9.761-48.965 3.28-100.781 37.716-149.848C299.44 454.158 455.437 390.358 529.408 399.365c25.145 3.06 43.737-.606 56.844-11.212 22.81-18.46 26.047-55.498 29.473-94.71 5.614-64.21 11.978-136.99 113.665-131.727 19.905 1.03 36.178 3.23 49.16 6.71z" opacity=".5"/>
		<path d="M768.964 185.439c15.712 4.21 26.39 10.373 32.677 18.698 12.437 16.457 7.004 40.06.717 67.388-11.246 48.871-26.65 115.805 51.517 185.933 25.753 23.106 35.406 36.002 32.261 43.122-3.398 7.715-20.518 6.01-42.187 3.85-30.971-3.084-69.514-6.923-74.867 16.856-7.922 35.177 12.232 41.52 33.57 48.23 12.984 4.09 26.415 8.314 32.03 19.772 4.338 8.849 3.524 21.02-2.486 37.214-28.762 77.505-134.406 218.752-209.243 216.044-28.627-1.036-49.362-22.887-61.623-64.943-8.4-28.806-16.022-43.41-23.242-44.52-6.69-1.067-14.11 9.806-21.965 21.316-10.69 15.66-22.806 33.412-40.026 35.062-10.568 1.019-21.445-4.16-33.254-15.835-14.06-13.902-27.244-20.388-40.293-19.834-23.063.981-43.109 24.525-62.497 47.296-29.21 34.305-59.412 69.779-102.76 36.335-60.17-46.43-93.303-141.496-23.866-240.497 96.339-137.364 245.84-198.58 316.727-189.956 24.099 2.932 41.924-.593 54.492-10.77 21.866-17.712 24.977-53.235 28.271-90.847 5.392-61.573 11.503-131.365 108.94-126.339 19.07.984 34.668 3.092 47.107 6.425z" opacity=".6"/>
		<path d="M760.423 201.464c15.02 4.025 25.224 9.923 31.234 17.888 11.883 15.745 6.684 38.336.661 64.493-10.766 46.79-25.517 110.872 49.223 177.99 24.615 22.108 33.838 34.446 30.836 41.25-3.252 7.374-19.614 5.748-40.33 3.688-29.623-2.945-66.491-6.61-71.62 16.172-7.586 33.693 11.69 39.757 32.104 46.182 12.412 3.91 25.25 7.948 30.616 18.907 4.14 8.465 3.359 20.113-2.392 35.61-27.526 74.198-128.585 209.43-200.143 206.86-27.373-.981-47.184-21.888-58.895-62.137-8.03-27.578-15.335-41.527-22.228-42.627-6.411-1.016-13.514 9.398-21.03 20.422-10.227 14.992-21.814 31.982-38.275 33.57-10.102.977-20.501-3.977-31.782-15.144-13.445-13.308-26.054-19.52-38.542-18.983-22.062.947-41.241 23.492-59.79 45.298-27.94 32.84-56.831 66.805-98.254 34.81-57.524-44.423-89.18-135.407-22.757-230.19C321.223 464.006 464.206 405.366 531.987 413.6c23.05 2.797 40.1-.58 52.125-10.33 20.924-16.965 23.909-50.979 27.068-86.985 5.173-58.938 11.033-125.74 104.198-120.959 18.236.938 33.15 2.95 45.045 6.137z" opacity=".6"/>
		<path d="M753.494 220.439c14.329 3.84 24.063 9.454 29.8 17.033 11.344 14.986 6.4 36.475.674 61.361-10.242 44.52-24.268 105.5 47.092 169.43 23.492 21.043 32.297 32.786 29.444 39.253-3.095 7.003-18.699 5.445-38.458 3.47-28.27-2.826-63.457-6.339-68.334 15.349-7.22 32.072 11.186 37.864 30.669 43.99 11.843 3.73 24.09 7.581 29.211 18.007 3.957 8.054 3.216 19.13-2.254 33.873-26.208 70.58-122.52 199.189-190.782 196.69-26.106-.959-45.014-20.857-56.216-59.155-7.681-26.266-14.667-39.544-21.251-40.592-6.124-.976-12.898 8.934-20.065 19.424-9.743 14.256-20.782 30.413-36.477 31.91-9.635.921-19.555-3.8-30.32-14.429-12.84-12.681-24.885-18.6-36.797-18.094-21.054.885-39.341 22.33-57.022 43.07-26.632 31.223-54.165 63.505-93.691 33.051-54.905-42.31-85.166-128.9-21.87-219.041 87.83-125.077 224.192-180.777 288.86-172.896 22 2.682 38.267-.52 49.736-9.794 19.956-16.135 22.778-48.502 25.77-82.767 4.892-56.075 10.437-119.627 99.303-115.013 17.403.903 31.631 2.83 42.978 5.87z" opacity=".7"/>
		<path d="M744.952 238.464c13.637 3.654 22.904 9.003 28.36 16.222 10.791 14.273 6.077 34.751.622 58.463-9.766 42.441-23.141 100.57 44.792 161.488 22.354 20.048 30.733 31.228 28.019 37.382-2.94 6.664-17.794 5.182-36.598 3.308-26.925-2.686-60.432-6.025-65.09 14.664-6.884 30.588 10.646 36.102 29.206 41.942 11.27 3.547 22.926 7.215 27.794 17.142 3.76 7.67 3.057 18.224-2.157 32.27-24.972 67.275-116.696 189.87-181.684 187.51-24.85-.902-42.838-19.863-53.49-56.354-7.306-25.037-13.95-37.71-20.235-38.695-5.844-.93-12.3 8.52-19.129 18.527-9.278 13.585-19.79 28.985-34.726 30.416-9.171.875-18.605-3.614-28.847-13.739-12.228-12.085-23.69-17.72-35.047-17.241-20.054.85-37.471 21.299-54.32 41.073-25.354 29.764-51.58 60.533-89.183 31.529-52.258-40.305-81.04-122.818-20.759-208.739 83.66-119.234 213.497-172.353 275.058-164.859 20.955 2.552 36.448-.51 47.375-9.355 19.009-15.39 21.709-46.24 24.564-78.906 4.676-53.438 9.97-114.001 94.561-109.63 16.566.857 30.114 2.688 40.914 5.582z" opacity=".7"/>
		<path d="M735.724 254.44c12.92 3.462 21.694 8.534 26.863 15.391 10.21 13.553 5.728 33.019.539 55.563-9.291 40.363-22.015 95.636 42.347 153.506 21.17 19.034 29.107 29.65 26.529 35.495-2.786 6.322-16.861 4.927-34.674 3.16-25.535-2.533-57.308-5.684-61.742 14.008-6.553 29.1 10.07 34.332 27.665 39.873 10.68 3.361 21.725 6.837 26.328 16.267 3.56 7.281 2.882 17.31-2.069 30.663-23.723 63.97-110.77 180.578-172.366 178.384-23.531-.833-40.58-18.84-50.65-53.519-6.91-23.799-13.222-35.828-19.17-36.782-5.55-.88-11.68 8.113-18.167 17.637-8.803 12.917-18.782 27.56-32.93 28.93-8.692.844-17.625-3.421-27.321-13.03-11.585-11.481-22.455-16.84-33.226-16.373-19.023.825-35.553 20.281-51.543 39.099-24.05 28.304-48.919 57.586-84.548 30.033-49.5-38.268-76.72-116.678-19.512-198.397 79.394-113.408 202.515-164.004 260.869-156.93 19.867 2.41 34.563-.51 44.932-8.931 18.041-14.647 20.624-43.987 23.356-75.046 4.469-50.796 9.538-108.367 89.711-104.276 15.7.801 28.541 2.531 38.78 5.275z" opacity=".7"/>
		<path d="M728.117 273.6c12.304 3.296 20.663 8.11 25.587 14.607 9.736 12.845 5.501 31.275.593 52.613-8.792 38.22-20.83 90.565 40.547 145.476 20.178 18.052 27.748 28.113 25.309 33.636-2.64 5.972-16.036 4.629-32.992 2.931-24.321-2.437-54.591-5.47-58.791 13.194-6.204 27.57 9.642 32.554 26.417 37.832 10.17 3.198 20.684 6.506 25.077 15.432 3.396 6.897 2.765 16.39-1.928 29.024-22.494 60.55-105.196 170.864-163.842 168.7-22.406-.823-38.649-17.904-48.284-50.752-6.615-22.563-12.63-33.986-18.322-34.88-5.3-.847-11.129 7.67-17.296 16.687-8.36 12.219-17.837 26.072-31.3 27.347-8.264.78-16.772-3.263-26.013-12.378-11.054-10.9-21.417-15.989-31.677-15.56-18.12.754-33.836 19.16-49.034 36.963-22.855 26.77-46.5 54.442-80.43 28.327-47.182-36.313-73.207-110.61-18.863-187.914 75.431-107.297 192.58-155.044 248.143-148.258 18.927 2.312 32.922-.433 42.79-8.398 17.161-13.854 19.576-41.643 22.136-71.065 4.182-48.095 8.923-102.606 85.247-98.62 14.952.782 27.178 2.443 36.926 5.055z" opacity=".8"/>
		<path d="M718.89 289.575c11.584 3.104 19.454 7.65 24.088 13.783 9.16 12.123 5.154 29.54.514 49.71-8.319 36.139-19.709 85.632 38.101 137.497 18.994 17.04 26.113 26.532 23.817 31.746-2.487 5.631-15.1 4.374-31.071 2.782-22.928-2.281-51.464-5.129-55.44 12.538-5.871 26.086 9.065 30.786 24.88 35.761 9.574 3.014 19.48 6.13 23.608 14.556 3.19 6.512 2.587 15.476-1.843 27.418-21.246 57.248-99.262 161.575-154.52 159.576-21.107-.763-36.398-16.883-45.446-47.915-6.218-21.33-11.885-32.073-17.257-32.972-5.009-.797-10.507 7.26-16.333 15.796-7.886 11.553-16.822 24.648-29.501 25.866-7.781.743-15.79-3.071-24.493-11.675-10.413-10.296-20.177-15.098-29.853-14.687-17.086.729-31.916 18.143-46.255 34.985-21.556 25.312-43.849 51.49-75.797 26.837-44.426-34.283-68.89-104.473-17.617-177.575 71.17-101.472 181.6-146.69 233.954-140.324 17.84 2.17 31.038-.44 40.347-7.978 16.192-13.115 18.493-39.391 20.93-67.205 3.977-45.454 8.489-96.971 80.392-93.263 14.093.726 25.61 2.282 34.795 4.743z" opacity=".8"/>
		<path d="M710.221 307.584c10.893 2.918 18.291 7.19 22.65 12.953 8.61 11.394 4.842 27.773.479 46.74-7.825 33.994-18.537 80.553 35.863 129.347 17.859 16.02 24.557 24.942 22.399 29.833-2.329 5.281-14.192 4.1-29.21 2.604-21.577-2.152-48.432-4.828-52.173 11.805-5.528 24.556 8.534 28.98 23.42 33.667 9.005 2.832 18.315 5.762 22.198 13.678 3 6.12 2.433 14.548-1.735 25.77-19.979 53.84-93.362 151.95-145.333 150.068-19.853-.72-34.222-15.878-42.73-45.053-5.858-20.069-11.13-30.233-16.259-31.03-4.728-.751-9.669 6.484-15.39 14.862-7.413 10.866-15.819 23.176-27.734 24.32-7.312.7-14.841-2.89-23.023-10.973-9.796-9.69-18.987-14.212-28.105-13.826-16.084.686-30.036 17.068-43.533 32.915-20.268 23.797-41.219 48.401-71.266 25.231-41.79-32.239-64.805-98.248-16.581-166.99 66.941-95.427 170.816-137.95 220.065-131.958 16.79 2.042 29.212-.414 37.976-7.51 15.24-12.34 17.4-37.055 19.692-63.222 3.739-42.74 7.978-91.185 75.6-87.694 13.254.685 24.092 2.148 32.73 4.463z" opacity=".8"/>
		<path d="M703.55 325.592c10.205 2.735 17.132 6.732 21.21 12.128 8.064 10.667 4.535 26.003.447 43.764-7.326 31.852-17.364 75.475 33.622 121.198 16.728 14.998 23.005 23.351 20.985 27.922-2.176 4.93-13.281 3.823-27.343 2.418-20.23-2.014-45.404-4.526-48.916 11.078-5.185 23.023 8.004 27.174 21.965 31.568 8.433 2.655 17.155 5.4 20.786 12.806 2.807 5.726 2.278 13.615-1.622 24.12-18.718 50.429-87.457 142.325-136.15 140.556-18.586-.68-32.05-14.872-40.02-42.191-5.491-18.81-10.485-28.322-15.258-29.088-4.444-.706-9.076 6.08-14.443 13.937-6.943 10.172-14.815 21.698-25.968 22.766-6.843.658-13.895-2.703-21.553-10.274-9.19-9.079-17.811-13.321-26.355-12.959-15.084.64-28.16 15.99-40.809 30.837-18.98 22.285-38.616 45.326-66.741 23.63-39.154-30.198-60.716-92.022-15.545-156.4 62.715-89.384 160.032-129.213 206.175-123.595 15.74 1.915 27.386-.386 35.6-7.035 14.29-11.57 16.318-34.727 18.46-59.244 3.5-40.029 7.468-85.398 70.81-82.124 12.415.643 22.57 2.014 30.662 4.182z" opacity=".9"/>
		<path d="M693.697 341.668c9.536 2.555 16.009 6.287 19.822 11.327 7.537 9.959 4.242 24.288.424 40.876-6.85 29.774-16.232 70.552 31.472 113.299 15.633 14.013 21.5 21.808 19.623 26.067-2.027 4.591-12.403 3.553-25.543 2.243-18.93-1.89-42.486-4.24-45.775 10.363-4.846 21.542 7.498 25.424 20.569 29.538 7.879 2.478 16.028 5.044 19.423 11.955 2.621 5.343 2.129 12.711-1.515 22.52-17.492 47.118-81.747 132.976-127.272 131.316-17.356-.637-29.953-13.892-37.41-39.417-5.141-17.591-9.823-26.452-14.293-27.205-4.174-.665-8.51 5.682-13.53 13.03-6.49 9.501-13.844 20.266-24.262 21.26-6.392.612-12.98-2.53-20.136-9.597-8.602-8.496-16.67-12.46-24.669-12.12-14.118.593-26.348 14.942-38.175 28.819-17.742 20.814-36.086 42.339-62.379 22.065-36.608-28.219-56.778-85.984-14.557-146.13 58.627-83.514 149.62-120.713 192.763-115.458 14.727 1.796 25.624-.353 33.311-6.574 13.369-10.814 15.26-32.46 17.261-55.379 3.266-37.396 6.97-79.781 66.177-76.712 11.612.6 21.105 1.887 28.671 3.914z" opacity=".9"/>
		<path d="M686.026 359.676c8.843 2.37 14.85 5.832 18.386 10.501 6.984 9.232 3.93 22.518.389 37.902-6.357 27.63-15.061 65.47 29.231 105.148 14.5 12.996 19.946 20.218 18.209 24.157-1.872 4.238-11.495 3.277-23.679 2.062-17.583-1.758-39.459-3.943-42.515 9.63-4.502 20.011 6.967 23.62 19.111 27.44 7.31 2.3 14.869 4.677 18.014 11.083 2.431 4.95 1.971 11.774-1.404 20.871-16.23 43.708-75.849 123.346-118.09 121.803-16.105-.591-27.777-12.888-34.698-36.552-4.777-16.334-9.072-24.584-13.291-25.265-3.89-.618-7.916 5.274-12.583 12.101-6.017 8.808-12.84 18.79-22.497 19.713-5.922.566-12.027-2.346-18.666-8.899-7.989-7.887-15.485-11.57-22.92-11.26-13.11.553-24.467 13.869-35.45 26.746-16.452 19.301-33.468 39.267-57.852 20.464-33.97-26.178-52.694-79.76-13.52-135.545 54.397-77.468 138.834-111.97 178.873-107.088 13.675 1.666 23.798-.33 30.937-6.107 12.419-10.037 14.171-30.13 16.029-51.395 3.023-34.685 6.453-73.996 61.38-71.143 10.778.56 19.586 1.752 26.606 3.633z" opacity=".9"/>
		<path d="M677.488 376.703c8.152 2.184 13.685 5.378 16.94 9.69 6.435 8.515 3.61 20.793.34 35.008-5.879 25.55-13.936 60.54 26.93 97.209 13.186 11.83 18.363 18.705 16.784 22.281-1.72 3.9-10.588 3.017-21.817 1.898-16.234-1.614-36.438-3.628-39.267 8.948-4.172 18.527 6.422 21.86 17.642 25.392 6.739 2.118 13.704 4.314 16.595 10.217 2.238 4.568 1.813 10.871-1.305 19.272-14.99 40.396-70.026 114.028-108.991 112.617-14.858-.541-25.602-11.89-31.973-33.747-4.403-15.114-8.391-22.755-12.275-23.368-3.61-.574-7.336 4.882-11.65 11.206-5.554 8.136-11.846 17.36-20.74 18.216-5.459.525-11.083-2.16-17.2-8.209-7.374-7.293-14.303-10.694-21.164-10.403-12.116.515-22.603 12.837-32.745 24.751-15.184 17.83-30.88 36.276-53.355 18.935-31.32-24.172-48.564-73.676-12.405-125.239 50.227-71.625 128.141-103.55 165.076-99.056 12.627 1.534 21.975-.32 28.573-5.664 11.472-9.295 13.1-27.872 14.822-47.54 2.808-32.043 5.988-68.368 56.643-65.757 9.942.51 18.068 1.608 24.542 3.343z"/>
		<path d="M668.637 395.78c7.481 2.004 12.563 4.936 15.553 8.889 5.906 7.81 3.313 19.077.311 32.119-5.4 23.472-12.793 55.614 24.782 89.31 12.11 10.86 16.866 17.158 15.422 20.429-1.57 3.56-9.711 2.75-20.017 1.72-14.933-1.489-33.517-3.342-36.124 8.233-3.835 17.044 5.92 20.112 16.241 23.36 6.187 1.946 12.586 3.96 15.238 9.369 2.054 4.188 1.662 9.964-1.199 17.672-13.765 37.087-64.315 104.676-100.11 103.378-13.632-.497-23.507-10.917-29.362-30.976-4.054-13.893-7.725-20.961-11.317-21.486-3.34-.53-6.764 4.488-10.736 10.302-5.096 7.466-10.875 15.928-19.036 16.71-5 .48-10.166-1.983-15.78-7.53-6.787-6.71-13.16-9.839-19.48-9.57-11.146.472-20.788 11.787-30.112 22.733-13.941 16.363-28.36 33.291-48.984 17.372-28.783-22.195-44.633-67.64-11.421-114.967 46.136-65.755 117.724-95.05 151.66-90.92 11.617 1.416 20.215-.286 26.284-5.2 10.555-8.542 12.046-25.607 13.625-43.678 2.573-29.411 5.489-62.75 52.01-60.345 9.14.473 16.603 1.481 22.552 3.075z"/>
		<path d="M660.093 410.804c6.792 1.82 11.401 4.481 14.111 8.074 5.355 7.1 2.993 17.352.26 29.228-4.926 21.39-11.667 50.684 22.487 81.373 10.984 9.87 15.3 15.593 13.994 18.554-1.418 3.218-8.806 2.486-18.16 1.556-13.585-1.347-30.494-3.028-32.873 7.548-3.504 15.56 5.373 18.353 14.772 21.312 5.615 1.767 11.42 3.596 13.823 8.507 1.859 3.806 1.498 9.06-1.102 16.068-12.531 33.781-58.496 95.363-91.015 94.198-12.357-.44-21.331-9.919-26.636-28.172-3.571-12.28-6.848-18.68-10.006-19.526a3.558 3.558 0 0 0-.294-.064c-3.057-.485-6.182 4.1-9.8 9.406-4.634 6.798-9.884 14.501-17.287 15.217-4.529.435-9.217-1.801-14.308-6.842-6.172-6.113-11.973-8.965-17.725-8.716-10.151.437-18.923 10.756-27.409 20.736-12.671 14.9-25.764 30.302-44.482 15.85-26.132-20.189-40.502-61.556-10.307-104.665 41.961-59.91 107.027-86.63 137.862-82.886 10.566 1.281 18.39-.276 23.92-4.76 9.605-7.8 10.975-23.352 12.42-39.82 2.356-26.778 5.02-57.127 47.268-54.966 8.303.427 15.084 1.342 20.487 2.79z"/>
		<path d="M653 428.851c6.12 1.64 10.282 4.029 12.727 7.249 4.832 6.36 2.72 15.546.272 26.18-4.41 19.184-10.448 45.46 20.441 73.05 9.914 8.856 13.818 13.982 12.652 16.622-1.265 2.857-7.918 2.184-16.345 1.34-12.282-1.236-27.562-2.772-29.702 6.745-3.146 13.983 4.89 16.51 13.396 19.182 5.061 1.591 10.296 3.238 12.465 7.631 1.677 3.405 1.358 8.108-.968 14.378-11.252 30.267-52.617 85.4-81.95 84.305-11.146-.425-19.234-8.923-24.048-25.283-3.348-11.383-6.46-17.137-9.361-17.61-2.783-.445-5.6 3.671-8.866 8.434-4.167 6.081-8.89 12.972-15.548 13.6-4.086.38-8.295-1.622-12.894-6.148-5.588-5.5-10.833-8.067-16.04-7.856-9.175.376-17.081 9.625-24.731 18.565-11.395 13.328-23.176 27.115-40.06 14.137-12.012-9.23-20.606-23.002-23.579-37.778-3.688-18.322 1.192-37.7 14.11-56.05 37.765-53.648 96.424-77.5 124.248-74.093 9.549 1.17 16.616-.218 21.608-4.24 8.671-6.986 9.88-20.937 11.158-35.714 2.078-23.992 4.433-51.187 42.527-49.179 7.493.393 13.613 1.227 18.488 2.533z"/>
		<path d="M644.46 444.876c5.43 1.456 9.115 3.579 11.281 6.436 4.281 5.649 2.4 13.821.222 23.288-3.934 17.103-9.321 40.526 18.141 65.11 8.791 7.87 12.257 12.415 11.228 14.747-1.112 2.516-7.015 1.926-14.485 1.178-10.935-1.096-24.54-2.456-26.456 6.06-2.81 12.498 4.68 14.855 11.928 17.134 4.487 1.412 9.133 2.875 11.048 6.77 1.488 3.02 1.202 7.198-.87 12.775-10.013 26.956-46.795 76.076-72.851 75.117-9.883-.36-17.058-7.928-21.321-22.476-2.885-9.845-5.539-14.978-8.105-15.665a1.832 1.832 0 0 0-.243-.051c-2.501-.4-5.02 3.28-7.93 7.537-3.7 5.41-7.899 11.548-13.794 12.107-3.619.344-7.353-1.444-11.426-5.457-4.973-4.908-9.644-7.198-14.287-7.004-8.175.342-15.215 8.589-22.026 16.57-10.125 11.862-20.588 24.137-35.564 12.61-10.662-8.213-18.288-20.462-20.921-33.618-3.262-16.306 1.083-33.564 12.567-49.909 33.591-47.796 85.728-69.071 110.45-66.055 8.503 1.04 14.796-.204 19.244-3.796 7.73-6.24 8.81-18.685 9.958-31.855.956-10.975 1.943-22.328 6.915-30.75 5.651-9.565 15.747-13.834 30.87-13.045l-.015.318.016-.318c6.657.347 12.096 1.082 16.425 2.242z"/>
	</g>
</svg>