<svg xmlns="http://www.w3.org/2000/svg" width="857" height="1050" viewBox="0 0 857 1050">
	<g fill="none" stroke-width="1.2" fill-rule="evenodd" stroke="#FF1C3B">
		<path d="M771.312 367.97c101.294 16.072 114.537 287.208 24.457 344.872-90.08 57.671-172.95 86.503-172.95 162.195 0 75.689-118.907 241.485-259.43 144.17-140.525-97.314-104.491-205.442-54.049-263.114 50.446-57.667 90.08-93.709-3.6-173.002-93.684-79.294-273.844-28.836-299.064-165.797C-18.547 280.33 41.353-32.798 165.218 2.8 291.272 39.03 266.102 128.95 287.72 190.222c21.62 61.276 165.746 122.548 212.588 75.692 46.842-46.857 56.775-105.92 154.937-48.292 52.073 30.572 10.02 117.071 43.249 146.701 11.826 10.553 63.56 2.177 72.817 3.647z" opacity=".2"/>
		<path d="M761.078 371.9c98.16 16.092 110.628 277.165 23.718 332.798-86.908 55.636-166.864 83.454-166.864 156.472 0 73.022-114.722 232.971-250.298 139.088-135.58-93.884-100.813-198.197-52.148-253.833 48.669-55.633 86.91-90.407-3.476-166.902-90.383-76.498-264.2-27.818-288.533-159.95C-.86 287.444 56.932-14.64 176.434 19.702c121.622 34.949 97.338 121.701 118.198 180.81 20.854 59.11 159.909 118.226 205.102 73.022 45.193-45.203 54.774-102.183 149.486-46.585 50.238 29.49 9.888 112.819 41.958 141.382 11.382 10.146 60.91 2.091 69.9 3.57z" opacity=".2"/>
		<path d="M749.747 377.186c95.144 16.116 106.85 267.397 23.003 321.05-83.843 53.653-160.98 80.482-160.98 150.905 0 70.424-110.67 224.684-241.468 134.138-130.797-90.542-97.26-191.145-50.306-244.802 46.951-53.656 83.844-87.187-3.355-160.963-87.198-73.778-254.881-26.828-278.357-154.263C14.805 295.82 70.558 4.483 185.844 37.605c117.331 33.706 93.908 117.37 114.029 174.378 20.123 57.008 154.273 114.02 197.872 70.424 43.6-43.595 52.842-98.55 144.211-44.928 48.47 28.44 9.768 108.674 40.724 136.209 10.95 9.742 58.331 2.008 67.067 3.498z" opacity=".2"/>
		<path d="M738.412 381.47c92.132 16.145 103.076 257.624 22.296 309.304-80.779 51.673-155.096 77.511-155.096 145.337s-106.628 216.396-232.64 129.192c-126.016-87.205-93.7-184.098-48.464-235.775 45.233-51.677 80.776-83.971-3.235-155.03C237.266 503.443 75.708 548.66 53.09 425.931 30.472 303.2 84.187 22.61 195.26 54.51c113.042 32.466 90.47 113.039 109.86 167.949 19.387 54.903 148.63 109.81 190.635 67.822 42.005-41.987 50.911-94.913 138.937-43.272 46.7 27.396 9.651 104.533 39.488 131.036 10.516 9.343 55.753 1.921 64.231 3.426z" opacity=".3"/>
		<path d="M727.18 386.406c88.996 16.16 99.165 247.583 21.556 297.225-77.606 49.642-149.01 74.462-149.01 139.614 0 65.155-102.44 207.882-223.509 124.108-121.069-83.77-90.025-176.85-46.566-226.493 43.463-49.641 77.61-80.668-3.1-148.925-80.715-68.256-235.93-24.82-257.662-142.723C47.161 311.314 98.768 41.77 205.48 72.41c108.605 31.188 86.923 108.595 105.548 161.341 18.624 52.743 142.796 105.49 183.152 65.155 40.36-40.337 48.913-91.178 133.488-41.568 44.862 26.314 9.515 100.28 38.201 125.716 10.068 8.937 53.094 1.836 61.311 3.353z" opacity=".3"/>
		<path d="M715.948 390.686c85.86 16.193 95.253 237.819 20.813 285.48-74.437 47.663-142.92 71.494-142.92 134.052 0 62.56-98.257 199.588-214.38 119.159-116.122-80.433-86.346-169.798-44.66-217.463 41.686-47.663 74.437-77.453-2.978-142.99-77.415-65.535-226.289-23.832-247.133-137.031-20.841-113.2 28.657-372.002 131.014-342.579 104.164 29.945 83.368 104.264 101.23 154.906 17.867 50.642 136.965 101.284 175.672 62.557 38.711-38.726 46.915-87.542 128.032-39.912 43.032 25.265 9.386 96.14 36.915 120.544 9.623 8.538 50.446 1.753 58.395 3.277z" opacity=".3"/>
		<path d="M705.613 394.972c82.85 16.222 91.476 228.048 20.107 273.73-71.373 45.686-137.037 68.528-137.037 128.487 0 59.96-94.208 191.301-205.549 114.21-111.344-77.092-82.794-162.747-42.826-208.433 39.968-45.686 71.373-74.237-2.854-137.054-74.227-62.815-216.97-22.842-236.957-131.342-19.984-108.497 27.477-356.556 125.616-328.352 99.882 28.698 79.936 99.933 97.066 148.47 17.13 48.54 131.325 97.081 168.438 59.963 37.117-37.118 44.984-83.906 122.762-38.255 41.259 24.22 9.263 91.998 35.676 115.364 9.19 8.14 47.866 1.676 55.558 3.212z" opacity=".4"/>
		<path d="M693.392 399.906c79.676 16.413 87.568 218.004 19.367 261.652-68.205 43.651-130.954 65.479-130.954 122.764 0 57.293-90.028 182.788-196.421 109.127-106.397-73.658-79.117-155.5-40.925-199.152 38.195-43.651 68.204-70.93-2.727-130.95-70.93-60.02-207.34-21.824-226.434-125.494C96.2 334.183 141.553 97.175 235.332 124.119c95.447 27.42 76.39 95.485 92.759 141.862 16.368 46.378 125.494 92.759 160.96 57.29 35.468-35.466 42.986-80.17 117.311-36.55 39.426 23.139 9.13 87.743 34.39 110.05 8.737 7.73 45.21 1.604 52.64 3.135z" opacity=".4"/>
		<path d="M682.06 404.19c76.66 16.464 83.791 208.234 18.654 249.906-65.137 41.667-125.066 62.505-125.066 117.2 0 54.69-85.98 174.495-187.598 104.176-101.61-70.32-75.557-148.452-39.08-190.124 36.474-41.671 65.138-67.714-2.609-125.014-67.743-57.3-198.017-20.834-216.257-119.8-18.237-98.972 25.078-325.236 114.646-299.51 91.153 26.175 72.951 91.152 88.586 135.428 15.634 44.276 119.851 88.549 153.726 54.692 33.872-33.858 41.052-76.536 112.037-34.893 37.656 22.09 9.01 83.602 33.158 104.873 8.307 7.338 42.623 1.524 49.804 3.066z" opacity=".4"/>
		<path d="M671.726 408.477c73.642 16.508 80.017 198.464 17.947 238.156C627.6 686.324 570.49 706.168 570.49 758.268c0 52.093-81.935 166.205-178.768 99.227-96.832-66.981-72.007-141.401-37.244-181.096 34.763-39.688 62.073-64.498-2.482-119.071-64.555-54.58-188.702-19.847-206.085-114.115-17.38-94.268 23.897-309.788 109.249-285.286 86.867 24.936 69.522 86.829 84.42 129 14.898 42.174 114.212 84.342 146.493 52.096 32.278-32.249 39.121-72.902 106.767-33.235 35.883 21.04 8.891 79.456 31.92 99.695 7.873 6.936 40.042 1.441 46.966 2.994z" opacity=".5"/>
		<path d="M659.496 413.758c70.497 16.552 76.107 188.698 17.203 226.41-58.9 37.712-113.09 56.57-113.09 106.068s-77.751 157.92-169.642 94.28c-91.886-63.64-68.329-134.35-35.34-172.062 32.983-37.711 58.901-61.285-2.356-113.138-61.262-51.853-179.066-18.858-195.56-108.423-16.492-89.568 22.677-294.34 103.67-271.063 82.43 23.696 65.971 82.498 80.107 122.568 14.14 40.07 108.384 80.14 139.012 49.498 30.63-30.64 37.124-69.266 101.312-31.582 34.05 19.995 8.757 75.322 30.633 94.522 7.424 6.54 37.396 1.361 44.05 2.922z" opacity=".5"/>
		<path d="M649.266 417.693c67.355 16.568 72.193 178.654 16.462 214.33-55.731 35.681-107.005 53.522-107.005 100.35 0 46.825-73.57 149.403-160.51 89.194-86.941-60.206-64.648-127.104-33.442-162.785 31.212-35.676 55.731-57.976-2.226-107.034-57.964-49.058-169.427-17.836-185.033-102.575-15.606-84.735 21.455-278.464 98.09-256.441 77.992 22.415 62.417 78.05 75.795 115.96 13.374 37.903 102.55 75.813 131.53 46.824 28.98-28.988 35.123-65.531 95.857-29.875 32.219 18.913 8.626 71.063 29.347 89.208 6.98 6.126 34.741 1.272 41.135 2.844z" opacity=".5"/>
		<path d="M637.93 422.976c64.342 16.602 68.419 168.888 15.755 202.585-52.67 33.701-101.12 50.548-101.12 94.782 0 44.23-69.522 141.117-151.684 84.245-82.162-56.865-61.094-120.054-31.6-153.751 29.491-33.7 52.664-54.764-2.108-101.099-54.773-46.338-160.107-16.854-174.856-96.886-14.742-80.04 20.277-263.02 92.694-242.216 73.703 21.168 58.99 73.715 71.63 109.52 12.64 35.806 96.91 71.611 124.297 44.231 27.386-27.38 33.19-61.895 90.585-28.215 30.446 17.86 8.504 66.922 28.11 84.028 6.546 5.733 32.16 1.192 38.296 2.776z" opacity=".6"/>
		<path d="M626.594 427.26c61.328 16.637 64.646 159.116 15.043 190.837-49.6 31.72-95.233 47.581-95.233 89.214 0 41.632-65.476 132.83-142.856 79.302-77.38-53.53-57.538-113.006-29.76-144.727 27.776-31.718 49.599-51.544-1.985-95.16-51.585-43.619-150.79-15.86-164.679-91.197-13.885-75.336 19.097-247.57 87.302-227.989 69.414 19.924 55.554 69.384 67.457 103.088 11.904 33.704 91.268 67.408 117.06 41.633 25.796-25.772 31.263-58.26 85.315-26.56 28.676 16.816 8.39 62.782 26.877 78.852 6.11 5.334 29.575 1.109 35.459 2.707z" opacity=".6"/>
		<path d="M615.363 432.194c58.187 16.635 60.732 149.077 14.302 178.763-46.43 29.686-89.147 44.529-89.147 83.491 0 38.962-61.288 124.311-133.725 74.215-72.433-50.096-53.859-105.755-27.86-135.442 26.004-29.686 46.434-48.241-1.856-89.058-48.29-40.823-141.15-14.843-154.151-85.352-13.002-70.503 17.875-231.695 81.718-213.37 64.976 18.65 52.003 64.94 63.148 96.48 11.142 31.544 85.435 63.084 109.578 38.965 24.146-24.122 29.261-54.524 79.862-24.859 26.842 15.737 8.25 58.53 25.583 73.538 5.67 4.927 26.933 1.026 32.548 2.63z" opacity=".7"/>
		<path d="M604.023 435.479c55.18 16.658 56.958 139.303 13.596 167.013-43.369 27.703-83.263 41.56-83.263 77.923 0 36.368-57.246 116.024-124.896 69.273-67.65-46.758-50.302-98.708-26.017-126.418 24.284-27.706 43.365-45.025-1.733-83.122-45.101-38.094-131.833-13.854-143.977-79.657-12.144-65.807 16.694-216.248 76.323-199.146 60.686 17.41 48.57 60.611 58.978 90.05 10.409 29.436 79.795 58.876 102.344 36.365 22.553-22.515 27.33-50.892 74.59-23.203 25.07 14.688 8.134 54.389 24.352 68.364 5.232 4.525 24.341.94 29.703 2.558z" opacity=".8"/><path d="M593.791 440.111c52.037 16.71 53.047 129.815 12.851 155.597-40.192 25.781-77.173 38.676-77.173 72.514 0 33.842-53.058 107.967-115.762 64.457-62.707-43.506-46.627-91.85-24.119-117.635 22.511-25.782 40.196-41.895-1.608-77.352-41.804-35.45-122.196-12.887-133.446-74.125-11.258-61.235 15.472-201.23 70.742-185.316 56.252 16.198 45.02 56.405 54.662 83.797 9.65 27.393 73.965 54.786 94.865 33.839 20.9-20.948 25.332-47.356 69.135-21.589 23.235 13.669 7.997 50.351 23.06 63.32 4.785 4.14 21.697.857 26.793 2.493z" opacity=".8"/>
		<path d="M582.451 445.395c49.033 16.724 49.27 120.043 12.143 143.848-37.132 23.805-71.288 35.71-71.288 66.95 0 31.244-49.012 99.68-106.933 59.508-57.924-40.169-43.073-84.8-22.277-108.605 20.79-23.802 37.128-38.679-1.487-71.412-38.615-32.73-112.874-11.904-123.27-68.436-10.394-56.535 14.294-185.787 65.346-171.092 51.961 14.954 41.586 52.07 50.499 77.364 8.912 25.292 68.317 50.583 87.626 31.24 19.306-19.339 23.397-43.716 63.86-19.928 21.464 12.616 7.883 46.205 21.832 58.14 4.35 3.741 19.106.769 23.95 2.423z" opacity=".8"/><path d="M571.105 449.328c46.037 16.693 45.498 110.004 11.438 131.77-34.066 21.771-65.403 32.655-65.403 61.228 0 28.574-44.961 91.163-98.106 54.428-53.137-36.738-39.512-77.556-20.438-99.326 19.078-21.767 34.067-35.377-1.36-65.312-35.425-29.931-103.551-10.883-113.09-62.589-9.536-51.702 13.113-169.908 59.953-156.47 47.667 13.676 38.15 47.621 46.322 70.75 8.175 23.135 62.68 46.263 80.39 28.573 17.716-17.686 21.473-39.982 58.591-18.229 19.692 11.542 7.766 41.963 20.603 52.832 3.914 3.332 16.513.683 21.1 2.345z" opacity=".9"/>
		<path d="M559.87 454.614c42.9 16.687 41.584 100.234 10.691 120.021-30.889 19.794-59.312 29.688-59.312 55.663 0 25.975-40.78 82.874-88.97 49.478-48.193-33.396-35.832-70.505-18.535-90.295 17.297-19.79 30.893-32.16-1.238-59.372-32.125-27.215-93.91-9.897-102.559-56.899-8.652-47.002 11.892-154.465 54.369-142.25 43.232 12.437 34.601 43.297 42.015 64.324 7.413 21.027 56.842 42.054 72.904 25.975 16.065-16.078 19.47-36.348 53.133-16.572 17.86 10.49 7.63 37.813 19.309 47.65 3.467 2.935 13.875.6 18.193 2.277z" opacity=".9"/>
		<path d="M548.626 458.895c39.788 16.615 37.665 90.467 9.947 108.278-27.721 17.814-53.226 26.718-53.226 50.095 0 23.381-36.586 74.588-79.83 44.53-43.24-30.056-32.156-63.455-16.63-81.266 15.523-17.811 27.718-28.948-1.113-53.437-28.829-24.488-84.268-8.907-92.026-51.206-7.765-42.307 10.67-139.02 48.785-128.024 38.793 11.19 31.045 38.962 37.696 57.888 6.658 18.926 51.01 37.851 65.422 23.377 14.416-14.47 17.47-32.712 47.678-14.915 16.026 9.443 7.486 33.67 18.009 42.471 3.023 2.538 11.242.505 15.288 2.209z"/>
		<path d="M538.277 463.832c36.789 16.605 33.893 80.42 9.244 96.195-24.657 15.78-47.341 23.666-47.341 44.373 0 20.711-32.54 66.074-71 39.45-38.457-26.629-28.598-56.212-14.794-71.988 13.807-15.78 24.656-25.638-.983-47.335-25.64-21.694-74.949-7.886-81.85-45.36-6.903-37.472 9.49-123.14 43.39-113.401 34.497 9.911 27.611 34.51 33.529 51.277 5.914 16.762 45.36 33.528 58.182 20.707 12.822-12.818 15.539-28.978 42.406-13.21 14.252 8.363 7.372 29.423 16.777 37.162 2.591 2.13 8.649.42 12.44 2.13z"/>
	</g>
</svg>