<svg width="1449" height="1754" viewBox="0 0 1449 1754" xmlns="http://www.w3.org/2000/svg">
	<g stroke="#2E3B32" fill="none" fill-rule="evenodd" opacity=".3">
		<path d="M459.21386 1663c-33.529776 0-58.079692-6.59074-75.052853-19.82484-33.560468-26.17878-35.340655-76.0851-37.397078-133.87575-3.674376-103.20667-8.712392-244.55456-201.384733-342.38515-63.6000248-32.29594-89.6845852-52.87062-87.2203857-68.8103 2.6834344-17.30781 37.6820831-23.05224 81.9894427-30.32266 63.152786-10.36627 141.739704-23.26272 139.722744-73.269894-2.994748-74.050437-46.355013-75.922855-92.262787-77.904901-28.040135-1.20589-57.03175-2.455631-74.355686-22.328704-13.3689403-15.33454-18.2491076-40.039944-14.9255076-75.5282C114.225927 649.126875 249.086042 311.595978 399.402213 277.059279c57.562297-13.225328 110.494355 19.232855 157.322916 96.466842 32.003901 52.782916 54.817477 77.628642 69.747369 76.120182 13.746024-1.438298 22.686421-26.976863 32.152981-54.010731 12.926086-36.90463 27.570973-78.738061 61.013054-91.239855 20.537919-7.682618 44.973834-3.166011 74.715231 13.795385 35.309962 20.144946 64.928588 26.025306 90.530832 17.969959 45.245685-14.225121 72.544806-71.730742 98.945065-127.346405 39.839349-83.929967 81.046729-170.71022 185.196429-127.2016968 73.50067 30.7085458 135.84229 89.2797348 171.03825 160.6991378 43.61019 88.507966 45.21938 194.122033 4.64778 305.427904-118.3912 324.805464-383.108487 526.399629-528.680416 547.048859-49.43307 7.0117-82.949691 23.49513-102.47913 50.4106-33.994553 46.84555-21.261394 119.15951-7.778452 195.72258 22.098871 125.5003 47.148643 267.73835-149.439231 309.7428C517.885486 1658.87805 485.73689 1663 459.21386 1663z" opacity=".2"/>
		<path d="M464.787958 1634c-32.408469 0-56.131715-6.3675-72.533241-19.16388-32.430391-25.30334-34.149022-73.54633-36.139477-129.40663-3.551253-99.77935-8.417785-236.43492-194.665647-331.01766-61.4673628-31.21476-86.6768732-51.10661-84.2962186-66.50349 2.586715-16.71687 36.4113016-22.26431 79.2323946-29.29399 61.046474-10.02047 137.021362-22.49234 135.070365-70.85812-2.889229-71.603626-44.815933-73.414766-89.197824-75.331154-27.099128-1.170883-55.118951-2.381233-71.858065-21.580196-12.920423-14.822407-17.637889-38.700514-14.424225-73.002545 15.371225-163.980547 145.719739-490.275217 291.001051-523.660714 55.645062-12.778844 106.787486 18.593788 152.050613 93.249601 30.939742 51.032055 53.089037 75.046108 67.434345 73.594565 13.301853-1.390149 21.947619-26.079542 31.101959-52.224864 12.48638-35.674639 26.643164-76.107357 58.959564-88.193319 19.834405-7.415589 43.461196-3.056573 72.200038 13.33578 34.135869 19.475239 62.765104 25.158623 87.52742 17.374667 43.741789-13.756772 70.130666-69.358338 95.651459-123.122451 38.502591-81.132942 78.307311-165.0374112 178.983141-122.96458 71.04259 29.684281 131.29551 86.303243 165.30862 155.341452 42.15907 85.562122 43.7111 187.661315 4.49826 295.264093-114.43803 313.998211-370.299214 508.886545-511.00774 528.844175-47.779695 6.77533-80.188164 22.72038-99.071184 48.74291-32.860048 45.29166-20.549039 115.20694-7.51901 189.23126 21.360128 121.3157 45.570026 258.81764-144.430765 299.417C521.498396 1630.01374 490.427126 1634 464.787958 1634z" opacity=".2"/>
		<path d="M470.367468 1603c-31.282822 0-54.179429-6.14016-70.013728-18.48622-31.304741-24.41162-32.961819-70.95587-34.886309-124.85428-3.428134-96.29225-8.123188-228.172-187.951196-319.44606-59.330399-30.1179-83.6692762-49.30096-81.3677793-64.14516 2.4943842-16.11518 35.1405703-21.47522 76.4754543-28.25525 58.944623-9.66823 132.307577-21.70312 130.422541-68.391994-2.792482-69.123905-43.276909-70.868218-86.137357-72.717717-26.158156-1.126353-53.206224-2.292151-69.360541-20.81343-12.467537-14.300742-17.017926-37.3362-13.914193-70.429949 14.834792-158.23291 140.671875-473.081515 280.927288-505.294341 53.705978-12.328528 103.071991 17.93838 146.769745 89.972396 29.871238 49.248372 51.185291 72.489817 65.121403 71.025996 12.857696-1.345488 21.204458-25.174215 30.04659-50.409787 12.05546-34.417323 25.719776-73.432096 56.906155-85.090071 19.157222-7.161328 41.948617-2.953939 69.689326 12.867599 32.96182 18.79739 60.601702 24.284527 84.519734 16.768201 42.242332-13.279573 67.716615-66.936939 92.362359-118.828077 37.170271-78.274977 75.60746-159.2233998 172.77008-118.639621 68.58023 28.640928 126.74892 83.275635 159.58799 149.888254 40.69047 82.561255 42.19411 181.079912 4.33997 284.89725-110.48062 302.997791-357.494805 491.050571-493.331344 510.308151-46.139533 6.53898-77.431123 21.93102-95.663363 47.04387-31.72997 43.71303-19.849862 111.18465-7.263962 182.61824 20.621412 117.05747 43.991469 249.73487-139.422491 288.90304C525.108024 1599.15199 495.118423 1603 470.367468 1603z" opacity=".2"/>
		<path d="M475.943938 1573c-30.157052 0-52.231313-5.92133-67.489554-17.82098-30.178968-23.53632-31.774487-68.42187-33.628619-120.39023-3.305003-92.86983-7.832944-220.04921-181.235993-308.08029-57.201966-29.04127-80.656964-47.53284-78.447785-61.84309 2.402044-15.51994 33.878467-20.68303 73.722596-27.21798 56.846919-9.33125 127.588876-20.94162 125.76981-65.984955-2.691342-66.677462-41.733328-68.364889-83.072159-70.144357-25.217081-1.086966-51.288904-2.213378-66.862743-20.065038-12.018987-13.788687-16.406663-35.996976-13.412874-67.904681 14.307066-152.587206 135.627834-456.205678 270.85679-487.271862 51.744767-11.89088 99.364856 17.299411 141.49268 86.760032 28.811381 47.510924 49.443539 69.938359 62.812581 68.505142 12.4091-1.297346 20.461209-24.285796 28.986712-48.62857 11.624492-33.18752 24.796286-70.806179 54.861289-82.048386 18.458044-6.903109 40.431489-2.844519 67.173956 12.408065 31.792021 18.132168 58.446822 23.42236 81.511707 16.172999 40.73832-12.806911 65.302291-64.556125 89.064119-114.600381 35.837799-75.478378 72.880999-153.529534 166.556349-114.403149 66.12635 27.61682 122.20619 80.303981 153.86671 144.540152 39.23485 79.607096 40.68134 174.607029 4.18166 274.726221-106.51839 292.1878-344.680199 473.535768-475.652977 492.106228-44.490418 6.31142-74.669387 21.152-92.250773 45.37644-30.604147 42.16375-19.141838 107.23268-7.008884 176.1279 19.878231 112.8779 42.408354 240.81552-134.413663 278.5832C528.727546 1569.29204 499.802199 1573 475.943938 1573z" opacity=".3"/>
		<path d="M481.518921 1543c-29.027012 0-50.27901-5.70685-64.970018-17.15999-29.044543-22.65646-30.587274-65.8786-32.366674-115.92092-3.186266-89.44236-7.551494-211.9336-174.52146-296.72106-55.069366-27.96005-77.653723-45.75999-75.523702-59.52743 2.314097-14.93336 32.612109-19.90384 70.970015-26.19803 54.740659-8.98544 122.870646-20.16683 121.117543-63.568684-2.590211-64.230538-40.198665-65.856684-80.011647-67.574875-24.280484-1.043187-49.380545-2.125823-64.365197-19.316499-11.570484-13.267766-15.791081-34.653107-12.907225-65.374538 13.770628-146.940395 130.588684-439.330919 260.782921-469.241468 49.845117-11.448763 95.658096 16.660316 136.211764 83.542654 27.751629 45.755602 47.557317 67.382016 60.503987 65.983794 11.964932-1.253578 19.718032-23.401586 27.931322-46.847004 11.189184-31.957476 23.877271-68.179747 52.812245-79.00172 17.767705-6.640458 38.914517-2.73508 64.658842 11.94844 30.622337 17.462431 56.296539 22.564406 78.503978 15.577681 39.234458-12.33854 62.896973-62.179229 85.779358-110.380623 34.501078-72.681232 70.176737-147.838939 160.338847-110.165848 63.66396 26.601278 117.65955 77.331744 148.14164 139.191003 37.775 76.661124 39.16872 168.141646 4.02337 264.5532C1146.06789 858.182541 916.757561 1032.82 790.652439 1050.7076c-42.845851 6.07065-71.907926 20.36845-88.838523 43.70429-29.474054 40.61418-18.438267 103.2887-6.753832 169.63629 19.139508 108.69312 40.829782 231.89443-129.409722 268.26134C532.341394 1539.42774 504.493344 1543 481.518921 1543z" opacity=".3"/>
		<path d="M487.097746 1513c-27.905737 0-48.331089-5.48366-62.45048-16.4992-27.918884-21.77684-29.400061-63.33605-31.113495-111.45287-3.063145-86.01588-7.256894-203.81595-167.806907-285.35635-52.93238-26.87914-74.641711-43.99202-72.595232-57.22118 2.217384-14.33818 31.336986-19.12049 68.204285-25.16961 52.647539-8.64411 118.161164-19.39664 116.478406-61.153112-2.497844-61.793091-38.663994-63.353589-76.955503-65.006139-23.330739-1.008187-47.459035-2.051442-61.858886-18.572557-11.117596-12.751373-15.179879-33.309619-12.41034-62.845113 13.242955-141.299589 125.545141-422.452238 250.713414-451.220632 47.879724-11.019922 91.942567 16.017022 130.935225 80.326197 26.678726 44.009551 45.741219 64.734367 58.195381 63.467559 11.516375-1.205441 18.97485-22.508869 26.871542-45.065956 10.758258-30.727784 22.949489-65.558451 50.7632-75.955926 17.072982-6.382262 37.401926-2.630053 62.143727 11.488947 29.443883 16.797271 54.146245 21.697936 75.496237 14.978151 37.734972-11.865921 60.487263-59.798634 82.485818-106.153316 33.164356-69.884887 67.468079-142.132439 154.130112-105.929762 61.20594 25.577264 113.11289 74.360361 142.41655 133.839006 36.31514 73.711615 37.65609 161.682499 3.86946 254.383095-98.60348 270.579836-319.06669 438.508708-440.299764 455.709258-41.201278 5.84748-69.146454 19.59828-85.435026 42.04578-28.343955 39.06066-17.730309 99.33271-6.494394 163.14656 18.396401 104.50953 39.255589 222.97149-124.401391 257.93805C535.950314 1509.5634 509.179562 1513 487.097746 1513z" opacity=".3"/>
		<path d="M492.981102 1484c-26.805512 0-46.431603-5.26045-59.992244-15.82956-26.814284-20.91027-28.235257-60.7976-29.879901-106.99747-2.942817-82.58461-6.973293-195.69297-161.245329-273.98594-50.848022-25.80248-71.702113-42.22384-69.737312-54.91028 2.127074-13.75607 30.099187-18.33704 65.509479-24.14984 50.589264-8.293965 113.55064-18.626357 111.932309-58.737257-2.398988-59.350981-37.160193-60.850208-73.956372-62.437109-22.419793-.968799-45.59393-1.9639-59.422101-17.81976-10.679225-12.239304-14.578129-31.97036-11.915997-60.31978 12.722969-135.653748 120.616032-405.580377 240.863664-433.193334 46.006188-10.555961 88.323987 15.378037 125.782409 77.109369 25.638911 42.263299 43.953672 62.200389 55.935455 60.942266 11.082711-1.152915 18.253361-21.616049 25.840654-43.284702 10.332753-29.493567 22.047007-62.923701 48.756033-72.905397 16.402588-6.132803 35.927807-2.525014 59.694016 11.025018 28.296656 16.132034 52.032165 20.840133 72.552942 14.382936 36.269893-11.393249 58.128314-57.417767 79.271864-101.929906 31.857859-67.079453 64.812149-136.438432 148.053089-101.688803 58.80371 24.553131 108.67372 71.379867 136.82565 128.486391 34.89277 70.766148 36.17779 155.213839 3.7147 244.2162-94.73152 259.769584-306.544186 420.997868-423.024485 437.506898-39.594268 5.61553-66.448023 18.81925-82.100652 40.37392-27.239698 37.51575-17.042903 95.38942-6.245263 156.66047 17.674445 100.32985 37.708408 214.05192-119.506446 247.61795-30.774587 6.57117-56.488055 9.86772-77.706162 9.86772z" opacity=".4"/>
		<path d="M498.323978 1454c-25.660476 0-44.445732-5.03721-57.424955-15.16864-25.66924-20.0261-27.027633-58.25896-28.605121-102.52419-2.817569-79.16187-6.673652-187.58255-154.409811-262.62345-48.674277-24.72576-68.647031-40.45555-66.762809-52.60361 2.028825-13.16076 28.811071-17.55791 62.709541-23.121206 48.4508-7.956958 108.745907-17.856027 107.19471-56.325617-2.29174-56.908689-35.589888-58.346641-70.842369-59.863504-21.453841-.929408-43.643842-1.88512-56.877216-17.071292-10.223001-11.727197-13.952008-30.631-11.406117-57.794257 12.181715-130.011869 115.485288-388.707257 230.620022-415.169074 44.042596-10.122654 84.557754 14.739004 120.410556 73.8923 24.560617 40.516918 42.136465 59.683761 53.590783 58.425553 10.630518-1.109152 17.496974-20.731931 24.766566-41.503317 9.894357-28.263641 21.107669-60.301904 46.671743-69.859022 15.687245-5.874558 34.376099-2.419967 57.135749 10.565437 27.097743 15.462364 49.835484 19.969115 69.49274 13.787677 34.739798-10.924925 55.672191-55.041106 75.916624-97.710566 30.502488-64.282576 62.039108-130.752766 141.741706-97.447527 110.63889 46.24242 199.93787 177.740465 134.55537 357.177538-90.70996 248.967295-293.513608 403.485717-405.046411 419.307567-37.916684 5.37917-63.638506 18.04454-78.633409 38.71071-26.085521 35.96195-16.322621 91.43268-5.985691 150.16511 16.922943 96.14987 36.106954 205.13169-114.411719 237.29709-29.459594 6.29543-54.085939 9.45629-74.400482 9.45629z" opacity=".4"/>
		<path d="M504.202778 1424c-24.559906 0-42.53688-4.82274-54.96156-14.51207-24.564292-19.15068-25.866844-55.71584-27.371138-98.05514-2.70159-75.7346-6.394347-179.45866-147.850633-251.25615-46.589264-23.64898-65.702133-38.69155-63.903997-50.29244 1.947249-12.569823 27.572879-16.774378 60.018269-22.096933 46.396294-7.611166 104.138386-17.085664 102.651635-53.913884-2.20162-54.466307-34.085641-55.838597-67.855511-57.294189-20.533836-.890015-41.769383-1.801952-54.435277-16.318409-9.77572-11.21507-13.345677-29.291588-10.90723-55.268636 11.66157-124.365393 110.554662-371.824728 220.771625-397.139745 42.159709-9.684945 80.929275 14.095563 115.247357 70.675109 23.524881 38.766086 40.370345 57.048667 51.334589 55.908746 10.196747-1.069773 16.775293-19.847781 23.735395-39.726251 9.473106-27.033667 20.204908-57.671239 44.668328-66.816914 15.012243-5.616304 32.901502-2.310533 54.67649 10.105839 25.950172 14.797053 47.72516 19.1156 66.557345 13.196779 33.269901-10.456584 53.312538-52.664355 72.697321-93.486684 29.199974-61.481206 59.391115-125.066882 135.662784-93.210472 105.91459 44.228939 191.4006 170.010465 128.81232 341.651893-86.8412 238.160209-281.000412 385.972902-387.770217 401.107551-36.309189 5.15156-60.939266 17.26542-75.298039 37.04305-24.985319 34.41246-15.635012 87.48894-5.736493 143.6739 16.200767 91.96971 34.568068 196.21111-109.515251 226.98021-28.20442 6.01966-51.777544 9.04484-71.228112 9.04484z" opacity=".4"/>
		<path d="M509.776495 1394c-23.433866 0-40.583912-4.59955-52.436782-13.8425-23.43825-18.27543-24.679228-53.17765-26.117534-93.59582-2.574042-72.30811-6.104031-171.34534-141.133787-239.89576-44.451551-22.56367-62.689097-36.91918-60.978916-47.981779 1.859273-11.983387 26.306092-15.995389 57.264754-21.072872 44.293689-7.265449 99.422909-16.315472 97.997759-51.493927-2.096068-52.024475-32.550446-53.339886-64.785166-54.725451-19.596921-.850632-39.860374-1.723188-51.936883-15.574458-9.331449-10.69867-12.729886-27.948083-10.410179-52.743566 11.133717-118.72016 105.513785-354.950303 210.698689-379.110005 40.22872-9.23418 77.216867 13.456647 109.969026 67.454238 22.460378 37.033184 38.549235 54.484293 49.02519 53.388118 9.743647-1.017251 16.027466-18.955062 22.675246-37.940817 9.037649-25.803964 19.27681-55.045534 42.614204-63.771089 14.326055-5.358104 31.392785-2.20112 52.164907 9.646342 24.780084 14.136276 45.578517 18.25351 63.548573 12.597246 31.765517-9.983964 50.902004-50.288134 69.402655-89.26374 27.871565-58.684836 56.685923-119.355942 129.451939-88.969965 101.08046 42.220284 182.66049 162.286548 122.93132 326.134049-82.88239 227.351123-268.187086 368.459566-370.087566 382.91154-34.668439 4.915246-58.181236 16.482086-71.888994 35.371386-23.854833 32.86333-14.926811 83.53732-5.48135 137.18413 15.461791 87.79048 32.984569 187.28811-104.505217 216.65684-26.924388 5.75273-49.424232 8.63786-67.981888 8.63786z" opacity=".5"/>
		<path d="M515.352112 1364c-22.30794 0-38.639913-4.38069-49.921031-13.18155-22.307941-17.39999-23.48735-50.63889-24.859674-89.12234-2.450892-68.8852-5.80936-163.23017-134.413232-228.53277-42.318444-21.49127-59.680756-35.150791-58.054135-45.670595 1.762538-11.392435 25.039435-15.211839 54.507137-20.048581 42.195679-6.92404 94.70352-15.545105 93.353118-49.082188-2.003681-49.582086-31.015403-50.831834-61.732665-52.156128-18.651332-.806854-37.94279-1.640019-49.434361-14.821566-8.87407-10.186538-12.118543-26.608659-9.904409-50.217923 10.601533-113.078028 100.46465-338.072039 200.622392-361.084933 38.297928-8.800853 73.509223 12.817585 104.691233 64.241405 21.391596 35.282344 36.715152 51.936874 46.711635 50.866915 9.299359-.973488 15.28848-18.06214 21.619586-36.159361 8.606621-24.569596 18.353191-52.419232 40.564674-60.724572 13.639938-5.095461 29.875453-2.096067 49.649197 9.186741 23.60573 13.466577 43.40578 17.386837 60.544487 12.001961 30.261282-9.515622 48.482941-47.911372 66.112703-85.04422 26.525754-55.88783 53.972237-113.670014 123.22857-84.732878 96.246833 40.211173 173.925643 154.565259 117.055303 310.612675-78.92837 216.552734-255.379439 350.946631-352.406703 364.707008-33.027853 4.683265-55.423481 15.711738-68.484675 33.7081-22.720076 31.31385-14.223066 79.5848-5.221847 130.69289 14.718505 83.6103 31.405616 178.36747-99.495693 206.3355-25.635717 5.47697-47.062388 8.22641-64.73161 8.22641z" opacity=".5"/>
		<path d="M520.924269 1334c-21.182051 0-36.682824-4.15746-47.400977-12.51624-21.173284-16.52458-22.295512-48.09585-23.597471-84.65781-2.33213-65.46246-5.523466-155.1066-127.697259-217.1659-40.185402-20.410146-56.676892-33.378089-55.129444-43.363887 1.67019-10.797117 23.772819-14.428316 51.745226-19.019942 40.097728-6.582645 89.993032-14.774771 88.704223-46.67056-1.902527-47.135424-29.476017-48.323896-58.662709-49.586922-17.714542-.763078-36.034036-1.552469-46.940688-14.07309-8.42986-9.665656-11.502836-25.264903-9.403042-47.687998 10.069365-107.431752 95.428823-321.194495 190.550787-343.056245 36.336511-8.358776 69.797314 12.16978 99.413609 61.024323 20.327229 33.527197 34.911808 49.319406 44.402524 48.341438 8.850696-.925342 14.540742-17.173644 20.559566-34.377986 8.171221-23.33528 17.433985-49.788655 38.515211-57.673795 12.949458-4.845985 28.362556-1.986635 47.133571 8.722772 22.427023 12.796908 41.250642 16.533359 57.536098 11.411088 28.761473-9.0473 46.072715-45.534714 62.818459-80.824885 25.188755-53.08217 51.227949-107.993097 117.022942-80.487201 91.404585 38.197762 165.182305 146.835529 111.166315 295.087576-74.9657 205.741651-242.563418 333.430059-334.726383 346.507639-31.378544 4.451289-52.66142 14.928264-65.071682 32.036125-21.59412 29.76005-13.519339 75.63683-4.966735 124.20193 13.984011 79.42591 29.826712 169.4472-94.490711 196.0146-24.342701 5.20121-44.696233 7.81497-61.48143 7.81497z" opacity=".5"/>
		<path d="M526.502399 1304c-20.060401 0-34.738637-3.93426-44.876218-11.85103-20.047253-15.64934-21.116674-45.56201-22.348261-80.19405-2.204584-62.03591-5.228765-146.99318-120.976012-205.80098-38.052088-19.333592-53.668259-31.614457-52.208762-41.057565 1.582216-10.210662 22.506043-13.644918 48.991734-17.995853 37.990728-6.236925 85.273144-14.000186 84.054705-44.254974-1.80136-44.693576-27.936421-45.820784-55.605487-47.018168-16.773249-.723694-34.11627-1.473704-44.437932-13.320353-7.976826-9.15363-10.887052-23.925756-8.897229-45.16288 9.537128-101.78644 90.379189-304.319832 180.47349-325.03502 34.418688-7.921158 66.089316 11.539627 94.135309 57.812172 19.258336 31.78551 33.06438 46.785709 42.088712 45.820784 8.406347-.877205 13.801662-16.285304 19.50816-32.596925 7.735768-22.105556 16.505893-47.167293 36.465489-54.632304 12.254508-4.579008 26.845087-1.881604 44.617629 8.267653 21.256926 12.136127 39.095212 15.671261 54.527302 10.811548 27.257076-8.574676 43.662163-43.154082 59.523774-76.597509 23.855968-50.290142 48.544682-102.282061 110.803368-76.255399 86.57486 36.189077 156.44659 139.115883 105.28972 279.565117C986.620606 829.44545 827.877392 950.4339 740.588129 962.820029c-29.733399 4.219354-49.903372 14.149311-61.666999 30.368825-20.459243 28.210896-12.80675 71.685166-4.707204 117.716476 13.240654 75.24223 28.247606 160.52406-89.480699 185.69545-23.062669 4.92989-42.338536 7.39922-58.230828 7.39922z" opacity=".6"/>
		<path d="M532.073151 1274c-18.930101 0-32.785883-3.72005-42.3561-11.18205-18.916955-14.75312-19.924807-42.96677-21.090411-75.64098-2.081434-58.54365-4.934095-138.71966-114.259808-194.222426-35.918989-18.23656-50.651165-29.808582-49.279609-38.703396 1.489869-9.609029 21.235016-12.847091 46.234141-16.948346 35.888316-5.893362 80.558095-13.215152 79.401255-41.796863-1.704585-42.20436-26.396973-43.269108-52.539792-44.395201-15.827668-.683542-32.203081-1.388993-41.939814-12.5579-7.523838-8.631913-10.26695-22.556898-8.391468-42.589948 9.004944-96.037703 85.330058-287.122849 170.392815-306.66515 32.492291-7.466386 62.390456 10.879716 88.861923 54.530031 18.19393 30.005757 31.22152 44.07972 39.779503 43.255963 7.962036-.832519 13.053882-15.375321 18.448085-30.781315 7.30474-20.852424 15.577895-44.487216 34.411592-51.528578 11.559631-4.315957 25.327773-1.7702 42.11071 7.799393 20.082558 11.453717 36.931224 14.788177 51.514412 10.204937 25.752825-8.097348 41.247462-40.732114 56.22941-72.293369 22.523314-47.436088 45.817855-96.493398 104.59757-71.938453 81.736845 34.146447 147.707365 131.244517 99.400555 263.750959-67.05287 183.929859-216.942458 298.077053-299.362888 309.76738-28.084031 3.982949-47.141209 13.359748-58.253879 28.669345-19.32886 26.631867-12.102995 67.666317-4.456461 111.101927 12.506135 70.98324 26.673037 151.43531-84.46681 175.17526C565.27532 1271.66456 547.08139 1274 532.073151 1274z" opacity=".6"/>
		<path d="M537.644211 1244c-17.804127 0-30.833034-3.49685-39.835859-10.51246-17.786604-13.87786-18.732886-40.4329-19.82812-71.18153-1.958279-55.11704-4.648174-130.6017-107.54762-182.857286-33.781405-17.155606-47.642689-28.040542-46.350313-36.392671 1.393138-9.018196 19.968311-12.068082 43.480799-15.928641 33.785785-5.543254 75.834018-12.444935 74.743164-39.376826-1.603422-39.762445-24.857436-40.765927-49.47392-41.830758-14.890805-.639775-30.285417-1.305841-39.441575-11.80516-7.075213-8.119882-9.655585-21.22212-7.885686-40.064803 8.468351-90.396679 80.28943-270.252284 160.316005-288.643619 30.570177-7.024377 58.678269 10.245161 83.575133 51.317829 17.133844 28.250879 29.325992 41.616038 37.474534 40.735253 7.517688-.788764 12.095767-13.860328 17.396701-28.995823 6.864928-19.627065 14.654234-41.865813 32.3576-48.487045 10.864723-4.062132 23.814773-1.660785 39.594908 7.335501 18.899361 10.788532 34.762734 13.934821 48.510114 9.61415 24.248486-7.629095 38.832625-38.355816 52.939242-68.079053 21.186211-44.63525 43.082133-90.782297 98.373938-67.693436 76.902966 32.133348 138.976464 123.520363 93.524244 248.232636-63.094256 173.120441-204.129758 280.563175-281.685484 291.566425-26.438955 3.751009-44.378891 12.58516-54.844949 27.006386-18.198412 25.082679-11.394817 63.710181-4.196938 104.607571 11.762816 66.7995 25.094007 142.51641-79.457053 164.85595-20.494023 4.37764-37.619105 6.57741-51.738865 6.57741z" opacity=".6"/>
		<path d="M543.525941 1214c-16.712444 0-28.933145-3.27362-37.372711-9.85155-16.686126-13.00246-17.572192-37.88988-18.598626-66.71266-1.846703-51.68994-4.368922-122.48258-100.985276-171.490509-31.696621-16.074496-44.706886-26.272248-43.491835-34.085996 1.307168-8.427278 18.725834-11.284577 40.785384-14.895641 31.731713-5.206244 71.223088-11.678989 70.201041-36.969588-1.504559-37.315795-23.353558-38.258003-46.483406-39.257181-13.970902-.604765-28.419929-1.227061-36.999861-11.061076-6.632341-7.603395-9.053671-19.878385-7.395586-37.534913 7.952667-84.750459 75.355141-253.374904 150.473413-270.615108 28.674344-6.57354 55.054565 9.606133 78.416896 48.100782 16.089566 26.504513 27.612819 38.998622 35.218955 38.214179 7.07976-.740619 11.378499-13.011227 16.361527-27.218837 6.443722-18.392765 13.751579-39.235269 30.354362-45.436308 10.18538-3.808271 22.335897-1.56012 37.135842 6.875923 17.756424 10.114486 32.66603 13.068197 45.57102 9.014514 22.783317-7.156394 36.477872-35.974793 49.725006-63.850984 19.875089-41.838391 40.443239-85.101048 92.295683-63.456572 72.183724 30.124342 130.436021 115.795096 87.777619 232.703312-59.226096 162.31823-191.605327 263.05992-264.403157 273.371613-24.831798 3.519035-41.68461 11.806077-51.510299 25.334422-17.098454 23.537656-10.716142 59.766628-3.952208 98.121038 11.040741 62.61954 23.550949 133.59624-74.565577 154.53516-19.230278 4.10189-35.306684 6.16598-48.558206 6.16598z" opacity=".7"/>
		<path d="M549.099475 1184c-15.58205 0-26.975849-3.05039-34.848008-9.18624-15.560122-12.12267-16.389001-35.35123-17.345063-62.24377-1.719156-48.26719-4.074225-114.372157-94.268553-160.128034-29.558969-15.002142-41.689549-24.503937-40.566834-31.774914 1.214812-7.840734 17.459088-10.501061 38.02757-13.875776 29.633524-4.860466 66.507681-10.908657 65.556005-34.553576-1.412164-34.877899-21.818379-35.754448-43.426249-36.687973-13.025243-.560992-26.497818-1.143897-34.497159-10.308221-6.179316-7.086901-8.437901-18.539019-6.889783-35.009381 7.420441-79.104197 70.309999-236.497399 140.396333-252.590846 26.721484-6.12708 51.342264 8.958335 73.138714 44.88371 15.025079 24.758137 25.782965 36.372416 32.905185 35.69309 6.635419-.692474 10.652632-12.15774 15.305758-25.43308 6.012662-17.162836 12.827891-36.609084 28.304686-42.389927 9.494832-3.550024 20.822847-1.446306 34.619956 6.416342 16.586354 9.453585 30.50626 12.20595 42.562285 8.414874 21.283335-6.683689 34.06737-33.598137 46.430387-59.62727 18.546718-39.041509 37.720578-79.415372 86.089402-59.215292 67.340946 28.110938 121.691733 108.065387 81.892379 217.182634-55.267378 151.511556-178.801065 245.543389-246.725297 255.172283-23.186687 3.282678-38.922233 11.022609-48.101302 23.666833-15.963597 21.983858-10.003562 55.809898-3.692678 91.625704 10.297398 58.43955 21.967489 124.676-69.555676 144.21428-17.950276 3.83491-32.949041 5.75455-45.312058 5.75455z" opacity=".7"/>
		<path d="M554.675159 1154c-14.456138 0-25.031874-2.83154-32.33229-8.52093-14.425445-11.25167-15.19714-32.8126-16.082836-57.77929-1.596007-44.84009-3.783939-106.24866-87.552368-148.761274-27.425884-13.925413-38.681239-22.735636-37.642081-29.468224 1.122466-7.245423 16.192453-9.717545 35.269994-12.85153 27.535501-4.514692 61.792644-10.133948 60.906948-32.133207-1.311005-32.435648-20.278931-33.255306-40.360554-34.118795-12.088435-.5216-24.589026-1.060733-32.003442-9.564133-5.730716-6.57041-7.817802-17.190893-6.388411-32.47948 6.892644-73.462359 65.274043-219.620017 130.328855-234.562331 24.803873-5.693771 47.630276 8.323688 67.856592 41.662274 13.960674 23.011777 23.8831 33.86457 30.595975 33.176408 6.186718-.648713 9.918041-11.304261 14.245675-23.651724 5.577254-15.928532 11.90428-33.982915 26.255187-39.347947 8.79996-3.29178 19.301158-1.341258 32.104288 5.956763 15.407604 8.783924 28.346658 11.34371 39.558166 7.824004 19.770314-6.215371 31.648287-31.221502 43.136028-55.403593 17.205303-36.244644 34.998146-73.734117 79.870489-54.978423 62.507339 26.101931 112.96132 100.340115 76.012011 201.662066-51.3046 140.70058-165.984697 228.026986-229.0445 236.964322-21.537321 3.055088-36.160075 10.252295-44.688187 22.008026-14.837601 20.430074-9.299809 51.86197-3.441938 85.130428 9.562886 54.25958 20.397317 115.75581-64.541809 133.89347-16.665993 3.55916-30.587205 5.34312-42.061792 5.34312z" opacity=".7"/>
		<path d="M560.244383 1124c-13.330276 0-23.079218-2.61271-29.807917-7.86443-13.299591-10.36755-14.009721-30.26974-14.829439-53.31068-1.477245-41.41321-3.489279-98.134436-80.832057-137.399607-24.955363-12.669013-35.664296-21.046343-34.717456-27.152894 1.030126-6.658904 14.921492-8.938449 32.512547-11.822951 25.428783-4.177705 57.077777-9.368055 56.253676-29.72615-1.209851-29.993559-18.735152-30.747562-37.299348-31.549787-11.147284-.477828-22.671551-.981958-29.496687-8.81132-5.282138-6.058331-7.210886-15.855993-5.887063-29.958489 6.356099-67.807711 60.225142-202.743655 120.253027-216.530522 22.890727-5.251722 43.922842 7.680315 62.579091 38.445412 12.896308 21.274297 22.106078 31.308681 28.282453 30.655504 5.742408-.600573 9.196619-10.455223 13.194387-21.87487 5.146249-14.694301 10.976327-31.352518 24.197015-36.297378 8.11389-3.033549 17.792696-1.236215 29.597508 5.497211 14.233281 8.118689 26.195899 10.477142 36.545383 7.224406 18.274883-5.742701 29.23806-28.845018 39.841788-51.184564 15.877099-33.434796 32.284604-68.018132 73.665006-50.737423 57.669553 24.093043 104.218122 92.619688 70.127509 186.138043-47.350753 129.903408-153.177625 210.520412-211.368816 218.770614-19.892401 2.823129-33.398018 9.477648-41.279582 20.336176-13.702874 18.885158-8.591693 47.914293-3.17805 78.648704 8.815253 50.071095 18.814056 106.831775-59.541314 123.568905-15.377378 3.2878-28.225467 4.93609-38.811661 4.93609z" opacity=".8"/>
		<path d="M565.816202 1094c-12.20002 0-21.126543-2.39386-27.287903-7.19913-12.169344-9.49653-12.817908-27.73111-13.567263-48.84183-1.354097-37.990523-3.207764-90.015402-74.115994-126.037348-22.853126-11.609799-32.656087-19.269286-31.792795-24.846198.937789-6.067962 13.654907-8.159304 29.755076-10.798692 23.326402-3.831935 52.358417-8.59774 51.60468-27.310212-1.113077-27.551351-17.204482-28.244081-34.233675-28.980655-10.206123-.438436-20.762821-.89441-27.00306-8.058463-4.833557-5.546222-6.590816-14.512249-5.381331-27.432974 5.823932-62.165916 55.180548-185.862015 110.172661-198.506525 20.94249-4.809649 40.215366 7.041291 57.301528 35.23276 11.831915 19.523579 20.298308 28.800896 25.977627 28.134472 5.298069-.556814 8.462011-9.606144 12.134287-20.093546 4.710855-13.464386 10.052746-28.726362 22.151975-33.251027 7.410284-2.775303 16.275457-1.131166 27.077557 5.033252 13.063311 7.457805 24.036317 9.623682 33.541289 6.633545 16.766262-5.274392 26.82339-26.46403 36.547472-46.960938 14.540109-30.642329 29.575406-62.34129 67.4463-46.496194 52.840457 22.079664 95.483557 84.890082 64.2473 170.613193-43.388072 119.0969-140.365956 193.004146-193.684072 200.571561-18.251825 2.586775-30.640279 8.694196-37.870894 18.664243-12.576887 17.33578-7.887943 43.962031-2.922921 72.157884 8.076378 45.891152 17.230775 97.911652-54.531983 113.248152-14.097508 3.01206-25.863691 4.52467-35.565861 4.52467z" opacity=".8"/>
		<path d="M571.395558 1064c-11.078434 0-19.178087-2.17067-24.767681-6.53394-11.043389-8.6213-11.630384-25.18858-12.313751-44.3782-1.226556-34.564128-2.913072-81.897949-67.403661-114.6773-20.741947-10.542014-29.643243-17.492552-28.863503-22.531144.845448-5.477112 12.388221-7.375902 27.001765-9.774605 21.223809-3.490617 47.64296-7.827578 46.950832-24.894766-1.01191-25.10964-15.660499-25.741109-31.172058-26.412044-9.264882-.399053-18.845165-.815647-24.504847-7.310124-4.380559-5.034207-5.975083-13.177518-4.875562-24.903536 5.296096-56.525195 50.135497-168.996738 100.100153-180.485956 18.985343-4.367656 36.507579 6.398003 52.023519 32.016327 10.443252 17.233826 18.039141 25.635864 23.190679 25.635864.162081 0 .3154-.008771.4731-.021926 4.849279-.508683 7.736067-8.761625 11.078434-18.312585 4.279806-12.2347 9.129085-26.100695 20.102385-30.209625 6.715397-2.508332 14.762484-1.017365 24.566175 4.578147 11.884456 6.788285 21.876511 8.761624 30.528115 6.038416 15.270629-4.806176 24.412856-24.087889 33.257204-42.738134 13.207386-27.846003 26.852827-56.626054 61.231454-42.264532 48.002165 20.071048 86.739448 77.170704 58.366568 155.095662-39.429412 108.29245-127.553117 175.495601-176.00648 182.37159-16.602318 2.359236-27.873497 7.919667-34.461857 17.001411-11.43764 15.78671-7.179737 40.014926-2.66338 65.668331 7.333056 41.716383 15.656118 88.993199-49.52222 102.933739-12.808754 2.73636-23.501698 4.10893-32.315383 4.10893z" opacity=".9"/>
		<path d="M577.244329 1034c-9.970801 0-17.268971-1.94742-22.298258-5.86859-9.935692-7.74583-10.466708-22.65414-11.076717-39.913399-1.110305-31.136841-2.633134-73.782777-60.8254-103.309923-18.677698-9.478336-26.69998-15.715354-26.0022-20.228639.759221-4.886102 11.146935-6.583518 24.29944-8.74586 19.173605-3.140439 43.025413-7.05283 42.402237-22.478702-.912819-22.667304-14.157484-23.237495-28.174535-23.83839-8.342647-.359659-16.97055-.732476-22.056887-6.561588-3.936536-4.51767-5.367206-11.838052-4.384169-22.377822 4.77475-50.88301 45.197748-152.118312 90.23312-162.460708 17.115372-3.916777 32.870291 5.76332 46.852234 28.803441 9.725042 16.031153 16.799396 23.553294 21.402992 23.088369 4.4105-.46054 7.017303-7.908117 10.041019-16.526781 3.857541-11.004695 8.228544-23.474344 18.09402-27.163044 6.056209-2.25445 13.270996-.916693 22.105161 4.118536 10.734411 6.118594 19.752895 7.894959 27.582081 5.43875 13.793234-4.333455 22.043721-21.711137 30.030895-38.514241 11.89299-25.044564 24.185338-50.948801 55.13783-38.022999 22.01739 9.188855 40.6907 26.724436 51.227625 48.097844 13.069123 26.500745 13.543087 58.124441 1.382396 91.47187-35.556089 97.489584-115.006524 157.986899-158.69022 164.175669-14.991311 2.122867-25.168374 7.140552-31.119257 15.333765-10.335052 14.232856-6.490676 36.058031-2.413707 59.172716 6.613556 37.531757 14.109211 80.072426-44.61407 92.607866-11.550682 2.46937-21.192341 3.70186-29.13563 3.70186z" opacity=".9"/>
		<path d="M582.819239 1005c-8.84957 0-15.316732-1.73294-19.774423-5.207604-8.810083-6.870353-9.279544-20.110918-9.823593-35.448563-.987186-27.709545-2.338533-65.65881-54.106543-91.946903-16.571554-8.414646-23.692452-13.933742-23.078204-17.912931.666899-4.295067 9.880631-5.80865 21.542583-7.721469 17.071728-2.799032 38.311573-6.286855 37.754362-20.067045-.820461-20.220597-13.166861-20.755835-25.114-21.269137-7.39731-.320266-15.05787-.653693-19.555049-5.813038-3.492443-4.001125-4.760428-10.494179-3.882929-19.852073 4.242704-45.232015 40.15432-135.235389 80.159465-144.426569 15.171945-3.49221 29.163654 5.124248 41.571479 25.581753 8.397659 13.845998 14.522597 20.593509 18.703876 20.593509.131624 0 .263249-.004387.390486-.021936 3.966293-.412396 6.29605-7.059002 8.985582-14.745373 3.422244-9.770291 7.305173-20.852354 16.040669-24.116429 5.361514-2.00495 11.767251-.802858 19.594535 3.654536 9.560344 5.457675 17.59384 7.041453 24.574339 4.847854 12.289363-3.865122 19.634023-19.329996 26.737372-34.294729 10.560691-22.243096 21.467994-45.253951 48.93369-33.785815 19.555048 8.173351 36.139765 23.747905 45.502671 42.748861 11.600527 23.55048 12.026114 51.663647 1.224111 81.303559-31.598712 86.677878-102.197834 140.46493-141.013969 145.970864-13.351136 1.890882-22.411306 6.361437-27.711395 13.661735-9.209344 12.683391-5.782714 32.118679-2.163033 52.685865 3.018594 17.140784 6.142487 34.869452 2.013858 49.755216-4.694616 16.908263-18.304613 27.551606-41.619742 32.531072l-.1053-.49136.1053.49136c-10.262342 2.1936-18.831112 3.29479-25.886198 3.29479z"/>
	</g>
</svg>