<svg xmlns="http://www.w3.org/2000/svg" width="1615" height="1526" viewBox="0 0 1615 1526">
	<g fill="none" fill-rule="evenodd" stroke="#2E3B32" opacity=".3">
		<path d="M1348.003 16.326c35.624 9.546 59.831 23.535 74.1 42.441 28.21 37.385 15.886 90.915 1.623 152.899-25.47 110.666-60.353 262.225 116.388 420.951 58.376 52.42 80.225 81.728 73.056 97.986-7.785 17.658-46.609 13.8-95.764 8.913-69.987-6.956-157.085-15.62-169.167 38.025-17.887 79.455 27.602 93.777 75.766 108.934 29.443 9.265 59.89 18.848 72.644 44.91 9.843 20.113 7.998 47.76-5.643 84.529-65.171 175.674-304.491 495.867-473.98 489.778-64.927-2.318-111.916-51.884-139.677-147.287-18.955-65.139-35.965-98.042-52.353-100.654-14.971-2.382-31.722 22.183-49.462 48.19-24.234 35.542-51.705 75.818-90.809 79.592-24.015 2.317-48.7-9.445-75.47-35.936-31.757-31.43-61.516-46.104-90.979-44.83-52.075 2.232-97.427 55.541-141.283 107.095-66.218 77.838-134.699 158.334-232.964 82.429-69.332-53.546-118.875-133.516-135.925-219.409-21.127-106.444 7.229-219.11 82.002-325.816 218.2-311.359 556.734-450.184 717.223-430.693 54.472 6.62 94.745-1.352 123.133-24.37 49.414-40.07 56.473-120.501 63.947-205.651 12.255-139.635 26.142-297.89 246.928-286.558 43.175 2.214 78.492 6.983 106.666 14.532z" opacity=".2"/>
		<path d="M1334.847 43.86c34.541 9.255 58.01 22.82 71.842 41.147 27.346 36.242 15.392 88.154 1.56 148.26-24.702 107.325-58.533 254.309 112.847 408.236 56.595 50.829 77.777 79.241 70.83 94.996-7.55 17.115-45.189 13.375-92.837 8.638-67.87-6.747-152.336-15.14-164.053 36.9-17.356 77.068 26.762 90.95 73.467 105.657 28.553 8.985 58.068 18.274 70.43 43.538 9.538 19.5 7.746 46.306-5.478 81.958-63.197 170.364-295.25 480.872-459.583 474.978-62.945-2.254-108.497-50.306-135.417-142.815-18.38-63.186-35.038-95.144-50.77-97.625-14.522-2.307-30.774 21.518-47.977 46.744-23.498 34.462-50.134 73.52-88.04 77.176-23.29 2.243-47.213-9.151-73.16-34.837-30.797-30.48-59.652-44.703-88.232-43.478-50.501 2.17-94.48 53.871-137.005 103.874-64.211 75.48-130.593 153.526-225.87 79.944-67.222-51.924-115.251-129.469-131.778-212.761-20.484-103.223 7.018-212.48 79.524-315.955C326.72 646.492 654.97 511.848 810.58 530.752c52.82 6.414 91.878-1.323 119.406-23.647 47.925-38.865 54.77-116.866 62.021-199.448 11.886-135.402 25.358-288.867 239.419-277.886 41.863 2.147 76.108 6.77 103.42 14.089z" opacity=".2"/>
		<path d="M1321.4 71.315c33.479 8.97 56.22 22.114 69.626 39.87 26.51 35.115 14.938 85.399 1.537 143.631-23.931 103.983-56.705 246.393 109.447 395.557 54.858 49.253 75.395 76.773 68.67 92.03-7.31 16.567-43.79 12.938-89.977 8.343-65.793-6.548-147.678-14.694-159.03 35.74-16.818 74.689 25.955 88.147 71.242 102.402 27.666 8.707 56.278 17.712 68.262 42.182 9.248 18.888 7.515 44.857-5.298 79.392-61.238 165.043-286.131 465.847-445.413 460.115-61.004-2.206-105.164-48.761-131.258-138.376-17.829-61.225-33.942-92.176-49.248-94.607-14.095-2.238-29.846 20.847-46.52 45.291-22.773 33.382-48.582 71.217-85.316 74.752-22.566 2.179-45.755-8.87-70.905-33.757-29.86-29.545-57.841-43.325-85.55-42.143-48.962 2.097-91.583 52.186-132.804 100.626-62.224 73.114-126.564 148.72-218.903 77.42-65.167-50.308-111.733-125.444-127.764-206.139-19.864-100.002 6.773-205.852 77.036-306.086 205.048-292.513 523.203-422.911 674.043-404.583 51.206 6.227 89.07-1.268 115.756-22.893 46.45-37.66 53.078-113.237 60.098-193.248 11.504-131.172 24.537-279.843 232.018-269.18 40.58 2.089 73.778 6.567 100.25 13.66z" opacity=".2"/>
		<path d="M1308.251 98.85c32.388 8.678 54.395 21.398 67.365 38.574 25.641 33.973 14.444 82.64 1.473 138.994-23.163 100.64-54.88 238.476 105.907 382.84 53.074 47.657 72.945 74.282 66.439 89.04-7.072 16.024-42.365 12.514-87.044 8.07-63.684-6.333-142.93-14.215-153.925 34.61-16.273 72.302 25.125 85.333 68.955 99.13 26.773 8.422 54.453 17.132 66.043 40.812 8.945 18.272 7.265 43.399-5.13 76.818-59.26 159.728-276.884 450.853-431.017 445.308-59.024-2.123-101.751-47.175-126.995-133.898-17.252-59.267-32.858-89.171-47.67-91.578-13.65-2.168-28.895 20.186-45.036 43.849-22.037 32.301-47.01 68.919-82.548 72.34-21.827 2.104-44.261-8.583-68.6-32.664-28.892-28.597-55.98-41.943-82.794-40.789-47.386 2.03-88.638 50.51-128.533 97.399-60.205 70.759-122.469 143.917-211.809 74.935-63.048-48.686-108.106-121.397-123.618-199.492-19.217-96.779 6.564-199.21 74.561-296.223 198.423-283.096 506.297-409.308 652.253-391.576 49.563 6.021 86.204-1.226 112.034-22.17 44.961-36.45 51.378-109.596 58.17-187.04 11.136-126.944 23.754-270.818 224.515-260.51 39.265 2.017 71.385 6.356 97.004 13.221z" opacity=".3"/>
		<path d="M1295.361 125.42c31.305 8.387 52.571 20.678 65.102 37.283 24.777 32.835 13.95 79.879 1.415 134.35-22.394 97.3-53.063 230.558 102.36 370.123 51.293 46.06 70.495 71.798 64.21 86.054-6.824 15.478-40.932 12.082-84.114 7.79-61.56-6.122-138.174-13.738-148.807 33.484-15.742 69.912 24.288 82.513 66.661 95.85 25.873 8.145 52.625 16.567 63.824 39.444 8.644 17.661 7.02 41.947-4.961 74.248-57.289 154.415-267.647 435.855-416.62 430.5-57.055-2.058-98.335-45.598-122.734-129.425-16.677-57.3-31.857-86.23-46.089-88.54-13.208-2.1-27.95 19.51-43.559 42.395-21.294 31.228-45.433 66.619-79.776 69.929-21.078 2.03-42.772-8.296-66.289-31.568-27.932-27.647-54.115-40.546-80.048-39.437-45.812 1.967-85.692 48.844-124.259 94.171-58.189 68.403-118.353 139.147-204.71 72.45-60.939-47.06-104.484-117.344-119.47-192.833-18.578-93.558 6.349-192.58 72.075-286.367 191.807-273.68 489.391-395.706 630.47-378.566 47.906 5.822 83.337-1.192 108.311-21.44 43.463-35.244 49.667-105.963 56.24-180.838 10.766-122.71 22.97-261.793 217.004-251.833 37.955 1.948 68.999 6.14 93.764 12.775z" opacity=".3"/>
		<path d="M1281.949 153.919c30.217 8.096 50.744 19.953 62.843 35.977 23.92 31.682 13.474 77.07 1.383 129.63-21.61 93.898-51.209 222.499 98.868 357.206 49.514 44.447 68.059 69.276 61.993 83.019-6.58 14.92-39.5 11.648-81.182 7.499-59.439-5.917-133.417-13.28-143.68 32.306-15.193 67.491 23.46 79.654 64.382 92.534 24.975 7.858 50.8 15.984 61.61 38.056 8.341 17.04 6.775 40.468-4.789 71.631-55.283 149.002-258.32 420.553-402.134 415.368-55.067-1.992-94.917-44.005-118.482-124.894-16.107-55.301-30.68-83.267-44.52-85.46-12.768-2.029-26.997 18.828-42.07 40.915-20.552 30.124-43.849 64.273-76.99 67.462-20.358 1.96-41.284-8.003-63.984-30.466-26.974-26.688-52.252-39.142-77.3-38.072-44.24 1.894-82.734 47.13-119.97 90.874-56.163 65.988-114.241 134.23-197.59 69.881-58.83-45.415-100.876-113.243-115.356-186.085-17.935-90.28 6.11-185.83 69.545-276.313 185.138-264.08 472.407-381.792 608.599-365.237 46.26 5.626 80.469-1.143 104.58-20.68 41.962-34.012 47.95-102.26 54.281-174.517 10.378-118.406 22.144-252.61 209.446-242.973 36.645 1.888 66.609 5.933 90.517 12.339z" opacity=".4"/>
		<path d="M1268.798 181.453c29.13 7.805 48.919 19.238 60.577 34.682 23.06 30.545 12.983 74.314 1.324 124.991-20.845 90.561-49.387 214.579 95.323 344.49 47.736 42.857 65.606 66.79 59.769 80.04-6.337 14.37-38.078 11.21-78.255 7.21-57.325-5.7-128.662-12.795-138.563 31.185-14.658 65.102 22.617 76.836 62.087 89.255 24.076 7.576 48.968 15.412 59.391 36.686 8.04 16.43 6.531 39.017-4.62 69.063-53.311 143.685-249.08 405.557-387.742 400.565-53.06-1.907-91.502-42.427-114.216-120.424-15.533-53.35-29.658-80.353-42.942-82.428-12.322-1.959-26.05 18.162-40.585 39.469-19.818 29.048-42.277 61.976-74.228 65.053-19.615 1.89-39.79-7.717-61.673-29.37-26.016-25.744-50.393-37.752-74.549-36.72-42.665 1.827-79.785 45.455-115.69 87.644-54.152 63.631-110.134 129.436-190.49 67.397-56.726-43.79-97.258-109.197-111.215-179.438-17.294-87.05 5.897-179.187 67.066-266.448 178.512-254.662 455.495-368.19 586.812-352.23 44.608 5.419 77.6-1.105 100.851-19.954 40.474-32.806 46.244-98.624 52.356-168.312 10.014-114.177 21.364-243.586 201.936-234.302 35.33 1.816 64.23 5.721 87.276 11.896z" opacity=".4"/>
		<path d="M1255.648 208.988c28.038 7.513 47.089 18.526 58.315 33.39 22.19 29.403 12.494 71.551 1.261 120.349-20.072 87.22-47.558 206.667 91.778 331.78 45.956 41.26 63.164 64.299 57.543 77.046-6.1 13.826-36.652 10.785-75.332 6.937-55.201-5.489-123.903-12.322-133.443 30.055-14.122 62.712 21.784 74.017 59.795 85.981 23.183 7.292 47.148 14.834 57.173 35.317 7.742 15.81 6.284 37.56-4.453 66.488-51.332 138.37-239.846 390.562-373.345 385.757-51.11-1.843-88.087-40.851-109.949-115.95-14.963-51.38-28.497-77.395-41.364-79.396-11.882-1.885-25.103 17.501-39.105 38.022-19.079 27.973-40.71 59.677-71.46 62.641-18.88 1.816-38.296-7.43-59.363-28.276-25.059-24.793-48.538-36.366-71.797-35.365-41.09 1.763-76.847 43.781-111.425 84.418-52.137 61.275-106.049 124.638-183.388 64.913-54.61-42.172-93.636-105.15-107.069-172.79-16.646-83.826 5.684-172.55 64.585-256.58C436.5 698.473 703.195 589.136 829.633 604.496c42.957 5.226 74.73-1.063 97.123-19.222 38.982-31.601 44.543-94.997 50.429-162.108 9.645-109.943 20.58-234.56 194.431-225.626 34.017 1.745 61.84 5.502 84.032 11.448z" opacity=".4"/>
		<path d="M1242.495 236.522c26.955 7.223 45.265 17.806 56.052 32.1 21.331 28.261 12.006 68.788 1.207 115.708-19.304 83.878-45.742 198.75 88.233 319.065 44.172 39.663 60.713 61.812 55.312 74.06-5.853 13.276-35.218 10.359-72.394 6.66-53.091-5.277-119.156-11.847-128.338 28.922-13.58 60.334 20.95 71.202 57.509 82.71 22.275 7.011 45.31 14.264 54.944 33.95 7.439 15.193 6.042 36.103-4.278 63.915-49.363 133.057-230.606 375.564-358.955 370.956-49.1-1.748-84.664-39.268-105.684-111.478-14.379-49.415-27.428-74.367-39.786-76.367-11.436-1.816-24.154 16.831-37.62 36.576-18.344 26.896-39.135 57.385-68.692 60.23-18.143 1.745-36.808-7.14-57.052-27.182-24.094-23.846-46.686-34.973-69.048-34.008-39.52 1.695-73.903 42.106-107.15 81.187-50.121 58.92-101.955 119.828-176.294 62.429-52.5-40.547-90.013-101.102-102.924-166.139-16-80.599 5.474-165.92 62.102-246.716 165.275-235.84 421.689-340.987 543.243-326.224 41.31 5.016 71.863-1.034 93.406-18.5 37.488-30.394 42.835-91.36 48.499-155.907 9.279-105.71 19.79-225.534 186.921-216.952 32.71 1.68 59.457 5.29 80.787 11.005z" opacity=".5"/>
		<path d="M1229.306 263.011c25.892 6.938 43.488 17.099 53.851 30.817 20.489 27.138 11.538 66.034 1.169 111.086-18.532 80.532-43.913 190.83 84.838 306.383 42.437 38.084 58.33 59.343 53.15 71.089-5.616 12.736-33.82 9.922-69.528 6.371-51.012-5.082-114.503-11.397-123.321 27.766-13.044 57.95 20.145 68.395 55.276 79.451 21.406 6.738 43.533 13.698 52.786 32.592 7.147 14.586 5.807 34.654-4.102 61.349-47.4 127.738-221.478 360.543-344.775 356.092-47.171-1.71-81.335-37.714-101.54-107.037-13.826-47.459-26.357-71.457-38.256-73.342-11.003-1.755-23.226 16.155-36.163 35.121-17.614 25.815-37.582 55.074-65.964 57.802-17.43 1.679-35.357-6.86-54.806-26.099-23.158-22.906-44.866-33.597-66.359-32.67-37.982 1.617-71.008 40.416-102.952 77.939-48.134 56.548-97.916 115.015-169.327 59.905-50.445-38.936-86.496-97.075-98.909-159.522-15.388-77.385 5.227-159.288 59.62-236.856 158.737-226.4 405.061-327.313 521.845-313.112 39.699 4.823 69.055-.98 89.753-17.75 36.021-29.186 41.15-87.727 46.58-149.705 8.894-101.486 18.976-216.518 179.522-208.25 31.426 1.618 57.117 5.088 77.612 10.58z" opacity=".5"/>
		<path d="M1216.38 290.606c24.787 6.641 41.628 16.369 51.543 29.515 19.611 25.987 11.028 63.269 1.095 106.434-17.767 77.194-42.103 182.918 81.177 293.639 40.616 36.48 55.837 56.844 50.873 68.09-5.366 12.188-32.374 9.503-66.557 6.103-48.86-4.854-109.662-10.897-118.12 26.663-12.516 55.562 19.275 65.57 52.934 76.159 20.482 6.45 41.669 13.117 50.521 31.21 6.84 13.974 5.549 33.199-3.94 58.777-45.417 122.43-212.156 345.573-330.216 341.334-45.162-1.621-77.862-36.122-97.183-102.539-13.237-45.493-25.254-68.556-36.643-70.305-10.556-1.68-22.267 15.497-34.665 33.68-16.872 24.739-35.996 52.783-63.162 55.398-16.673 1.614-33.831-6.56-52.454-24.993-22.173-21.949-42.97-32.187-63.557-31.304-36.383 1.561-68.02 38.757-98.619 74.732-46.1 54.198-93.766 110.241-162.133 57.442-94.9-73.302-147.123-223.432-37.526-379.832 152.056-217.007 387.942-313.77 499.77-300.187 38.016 4.618 66.14-.958 85.972-17.04 34.505-27.985 39.431-84.092 44.648-143.499 8.539-97.253 18.215-207.487 171.93-199.6 30.085 1.545 54.69 4.865 74.313 10.123z" opacity=".6"/>
		<path d="M1202.938 318.062c23.723 6.357 39.839 15.668 49.332 28.243 18.771 24.856 10.566 60.512 1.06 101.798-16.992 73.853-40.27 174.999 77.783 280.962 38.881 34.9 53.45 54.378 48.71 65.118-5.134 11.637-30.975 9.066-63.692 5.81-46.785-4.656-105.012-10.45-113.108 25.509-11.97 53.18 18.472 62.758 50.715 72.904 19.603 6.174 39.88 12.551 48.356 29.851 6.54 13.363 5.31 31.748-3.769 56.208-43.452 117.11-203.022 330.542-316.036 326.468-43.23-1.557-74.523-34.561-93.028-98.095-12.69-43.534-24.23-65.553-35.115-67.29-10.127-1.606-21.341 14.83-33.209 32.23-16.147 23.66-34.443 50.476-60.44 52.979-15.954 1.539-32.378-6.284-50.198-23.913-21.236-21.01-41.151-30.817-60.873-29.974-34.843 1.49-65.127 37.072-94.417 71.486-44.117 51.829-89.737 105.434-155.165 54.922-90.858-70.134-140.876-213.755-35.997-363.35C509.37 732.36 735.17 639.837 842.22 652.852c36.405 4.422 63.331-.905 82.32-16.292 33.04-26.773 37.746-80.461 42.726-137.294 8.155-93.029 17.393-198.472 164.53-190.901 28.802 1.485 52.355 4.664 71.143 9.698z" opacity=".6"/>
		<path d="M1189.79 345.597c22.635 6.066 38.01 14.947 47.067 26.943 17.91 23.719 10.074 57.753 1.003 97.166-16.229 70.51-38.452 167.087 74.235 268.25 37.097 33.3 50.998 51.886 46.482 62.13-4.897 11.093-29.55 8.641-60.767 5.533-44.665-4.446-100.258-9.973-107.986 24.376-11.44 50.794 17.636 59.947 48.413 69.628 18.71 5.894 38.057 11.981 46.137 28.486 6.244 12.75 5.062 30.29-3.596 53.64-41.481 111.794-193.786 315.547-301.64 311.66-41.248-1.493-71.103-32.983-88.764-93.618-12.11-41.584-23.134-62.605-33.536-64.258-9.675-1.539-20.388 14.161-31.723 30.78-15.408 22.585-32.867 48.18-57.667 50.568-15.225 1.468-30.893-5.998-47.891-22.818-20.277-20.069-39.301-29.429-58.123-28.616-33.267 1.422-62.183 35.4-90.14 68.26-42.111 49.47-85.647 100.617-148.069 52.433-86.709-66.943-134.433-204.033-34.333-346.838 138.901-198.153 354.414-286.493 456.582-274.079 34.76 4.226 60.465-.862 78.594-15.56 31.548-25.569 36.04-76.827 40.8-131.09 7.788-88.801 16.614-189.444 157.02-182.227 27.496 1.412 49.976 4.448 67.901 9.251z" opacity=".7"/>
		<path d="M1176.639 373.132c21.548 5.774 36.19 14.232 44.808 25.653 17.045 22.58 9.581 54.992.946 92.52-15.461 67.172-36.635 159.172 70.685 255.534 35.314 31.712 48.55 49.4 44.256 59.14-4.651 10.548-28.124 8.213-57.84 5.258-42.55-4.233-95.5-9.496-102.875 23.248-10.897 48.412 16.803 57.127 46.13 66.357 17.807 5.607 36.226 11.404 43.914 27.11 5.935 12.137 4.819 28.84-3.43 51.071-39.507 106.481-184.541 300.55-287.242 296.857-39.271-1.412-67.687-31.407-84.497-89.149-11.531-39.617-22.022-59.67-31.955-61.224-9.234-1.466-19.442 13.49-30.242 29.332-14.672 21.505-31.295 45.883-54.899 48.157-14.494 1.391-29.4-5.708-45.58-21.724-19.315-19.117-37.426-28.029-55.375-27.263-31.693 1.359-59.23 33.73-85.87 65.035-40.087 47.118-81.554 95.828-140.96 49.952-82.56-63.752-127.996-194.314-32.675-330.325C546.225 749.925 751.448 665.779 848.73 677.6c33.114 4.024 57.601-.832 74.875-14.835 30.05-24.366 34.337-73.192 38.87-124.888 7.423-84.57 15.83-180.418 149.509-173.553 26.18 1.344 47.588 4.234 64.655 8.807z" opacity=".7"/>
		<path d="M1163.492 400.668c20.46 5.482 34.357 13.51 42.547 24.358 16.175 21.441 9.087 52.227.882 87.88-14.69 63.836-34.81 151.252 67.14 242.817 33.533 30.116 46.106 46.91 42.027 56.155-4.408 9.997-26.697 7.784-54.905 4.98-40.435-4.02-90.75-9.021-97.76 22.121-10.363 46.022 15.964 54.306 43.829 63.08 16.913 5.322 34.404 10.826 41.699 25.743 5.64 11.518 4.572 27.381-3.26 48.497-37.532 101.165-175.309 285.551-272.848 282.049-37.261-1.331-64.269-29.82-80.231-84.676-10.958-37.645-20.958-56.674-30.378-58.186-8.789-1.397-18.49 12.825-28.757 27.885-13.932 20.426-29.726 43.58-52.13 45.74-13.762 1.33-27.91-5.421-43.27-20.624-18.35-18.165-35.566-26.647-52.622-25.914-30.123 1.295-56.288 32.059-81.597 61.812-38.07 44.755-77.433 91.055-133.867 47.457-78.404-60.553-121.55-184.584-31.004-313.804C564.647 758.709 759.583 678.749 851.99 689.97c31.462 3.821 54.731-.79 71.146-14.103 28.561-23.157 32.635-69.56 36.944-118.685 7.05-80.338 15.045-171.393 142.003-164.88 24.86 1.277 45.196 4.02 61.41 8.365z" opacity=".7"/>
		<path d="M1150.34 428.202c19.376 5.192 32.536 12.791 40.28 23.062 15.313 20.305 8.604 49.475.83 83.246-13.926 60.492-32.994 143.337 63.589 230.099 31.752 28.523 43.657 44.427 39.803 53.171-4.17 9.453-25.27 7.355-51.98 4.703-38.31-3.809-85.99-8.547-92.644 20.992-9.828 43.637 15.125 51.49 41.541 59.808 16.015 5.04 32.573 10.253 39.476 24.367 5.336 10.907 4.324 25.929-3.095 45.927-35.556 95.85-166.063 270.559-258.449 267.25-35.296-1.257-60.85-28.252-75.965-80.206-10.375-35.687-19.828-53.75-28.795-55.153-8.347-1.329-17.546 12.158-27.28 26.437-13.194 19.35-28.151 41.288-49.363 43.333-13.022 1.251-26.417-5.13-40.957-19.534-17.392-17.224-33.707-25.256-49.871-24.556-28.548 1.228-53.344 30.383-77.32 58.582-36.06 42.402-73.364 86.232-126.765 44.979-74.259-57.363-115.11-174.867-29.345-297.29 119.046-169.92 303.694-245.7 391.215-235.072 29.812 3.62 51.865-.751 67.426-13.374 27.063-21.954 30.923-65.927 35.014-112.487 6.684-76.105 14.261-162.365 134.493-156.208 23.553 1.207 42.81 3.81 58.162 7.924z" opacity=".8"/>
		<path d="M1137.194 455.738c18.285 4.9 30.706 12.079 38.019 21.763 14.454 19.147 8.125 46.66.794 78.523-13.141 57.087-31.137 135.27 60.098 217.177 29.975 26.911 41.21 41.902 37.584 50.139-3.927 8.896-23.837 6.913-49.046 4.404-36.19-3.596-81.233-8.085-87.513 19.822-9.277 41.208 14.298 48.627 39.259 56.481 15.111 4.757 30.746 9.677 37.26 22.985 5.034 10.285 4.08 24.446-2.917 43.31-33.555 90.435-156.736 255.255-243.958 252.115-33.317-1.197-57.448-26.656-71.72-75.67-9.808-33.693-18.75-50.66-27.229-52.078-7.906-1.257-16.588 11.472-25.786 24.957-12.453 18.252-26.561 38.94-46.576 40.867-12.283 1.177-24.923-4.846-38.657-18.433-16.434-16.261-31.845-23.843-47.118-23.19-26.971 1.156-50.384 28.669-73.024 55.277-34.033 39.99-69.231 81.347-119.653 42.415-70.114-54.138-108.706-165.002-27.75-280.49C601.634 775.803 775.96 704.34 858.597 714.38c28.158 3.421 48.993-.703 63.69-12.615 25.563-20.722 29.204-62.228 33.06-106.163 6.291-71.801 13.43-153.179 126.927-147.345 22.245 1.143 40.423 3.596 54.92 7.48z" opacity=".8"/>
		<path d="M1124.048 483.274c17.198 4.608 28.878 11.358 35.758 20.464 13.589 18.009 7.63 43.904.73 73.888-12.375 53.746-29.313 127.355 56.555 204.462 28.19 25.314 38.762 39.416 35.352 47.15-3.68 8.35-22.411 6.488-46.122 4.131-34.069-3.39-76.47-7.606-82.388 18.69-8.742 38.823 13.46 45.81 36.962 53.21 14.218 4.473 28.916 9.1 35.042 21.612 4.733 9.674 3.834 22.998-2.752 40.74-31.576 85.125-147.5 240.264-229.56 237.316-31.347-1.127-54.027-25.083-67.445-71.2-9.239-31.723-17.556-47.788-25.655-49.047-7.466-1.183-15.271 10.258-24.309 23.506-11.71 17.181-24.99 36.646-43.804 38.46-11.546 1.112-23.433-4.56-36.347-17.334-15.463-15.312-29.972-22.457-44.369-21.842-25.397 1.094-47.437 26.999-68.756 52.058-32.016 37.631-65.11 76.539-112.542 39.926-65.966-50.943-102.271-155.281-26.09-263.98 105.751-150.892 269.79-218.17 347.55-208.726 26.51 3.22 46.124-.67 59.966-11.892 24.07-19.517 27.496-58.59 31.128-99.956 5.927-67.568 12.648-144.156 119.418-138.674 20.929 1.076 38.04 3.383 51.678 7.038z" opacity=".8"/>
		<path d="M1110.602 510.73c16.143 4.325 27.1 10.65 33.55 19.188 12.752 16.878 7.167 41.147.698 69.253-11.594 50.407-27.48 119.44 53.16 191.784 26.456 23.73 36.383 36.948 33.187 44.181-3.443 7.802-21.008 6.053-43.25 3.832-31.999-3.184-71.82-7.153-77.378 17.54-8.205 36.434 12.656 43 34.739 49.95 13.338 4.201 27.134 8.542 32.876 20.261 4.439 9.061 3.6 21.545-2.57 38.17-29.618 79.805-138.367 225.238-215.387 222.45-29.4-1.073-50.693-23.529-63.296-66.758-8.681-29.766-16.578-44.817-24.128-46.028-7.03-1.117-14.359 9.623-22.849 22.057-10.985 16.098-23.438 34.34-41.08 36.032-10.824 1.042-21.978-4.274-34.09-16.253-14.534-14.366-28.171-21.078-41.686-20.502-23.859 1.015-44.546 25.307-64.556 48.805-30.027 35.269-61.091 71.734-105.575 37.407-61.927-47.78-96.021-145.61-24.559-247.493C637.628 793.147 791.57 730.1 864.556 738.982c24.897 3.028 43.32-.615 56.312-11.14 22.608-18.31 25.82-54.956 29.213-93.754 5.543-63.344 11.83-135.14 112.022-129.97 19.637 1.014 35.7 3.181 48.5 6.611z" opacity=".9"/>
		<path d="M1097.454 538.264c15.051 4.033 25.267 9.929 31.283 17.893 11.893 15.737 6.681 38.388.644 64.612-10.832 47.067-25.666 111.53 49.613 179.07 24.669 22.142 33.927 34.46 30.96 41.192-3.203 7.26-19.582 5.625-40.323 3.56-29.882-2.974-67.065-6.676-72.265 16.41-7.663 34.055 11.82 40.183 32.45 46.677 12.437 3.913 25.3 7.963 30.654 18.886 4.135 8.444 3.353 20.09-2.406 35.6-27.64 74.488-129.124 210.24-200.987 207.646-27.397-.998-47.275-21.941-59.03-62.284-8.105-27.803-15.49-41.806-22.546-42.993-6.589-1.049-13.436 8.986-21.367 20.605-10.25 15.022-21.866 32.041-38.311 33.62-10.09.971-20.488-3.993-31.78-15.159-13.575-13.424-26.308-19.685-38.934-19.144-22.288.948-41.603 23.636-60.281 45.579-28.02 32.91-56.99 66.946-98.482 34.916-57.77-44.582-89.576-135.88-22.891-230.978 92.598-132.044 236.26-190.9 304.362-182.62 23.246 2.83 40.448-.573 52.587-10.41 21.11-17.104 24.108-51.32 27.282-87.549 5.178-59.113 11.05-126.113 104.51-121.298 18.332.942 33.316 2.97 45.258 6.17z" opacity=".9"/>
		<path d="M1084.304 565.8c13.963 3.74 23.446 9.213 29.025 16.598 11.022 14.602 6.187 35.628.58 59.973-10.063 43.725-23.844 103.608 46.067 166.352 22.888 20.55 31.48 31.973 28.733 38.207-2.96 6.708-18.156 5.196-37.395 3.285-27.765-2.766-62.31-6.204-67.148 15.275-7.128 31.67 10.981 37.37 30.155 43.402 11.541 3.632 23.477 7.389 28.437 17.521 3.835 7.83 3.103 18.629-2.235 33.026-25.671 69.176-119.892 195.243-186.597 192.839-25.433-.92-43.853-20.368-54.762-57.806-7.529-25.84-14.304-38.892-20.966-39.964-6.144-.975-12.506 8.352-19.882 19.158-9.51 13.943-20.294 29.744-35.545 31.212-9.352.902-18.99-3.7-29.468-14.063-12.61-12.472-24.445-18.294-36.186-17.796-20.705.887-38.65 21.967-56.005 42.352-26 30.556-52.89 62.163-91.379 32.433-53.622-41.39-83.142-126.158-21.228-214.464 85.973-122.628 219.347-177.297 282.571-169.609 21.594 2.623 37.581-.544 48.862-9.692 19.62-15.894 22.405-47.688 25.358-81.339 4.806-54.886 10.257-117.09 96.996-112.626 17.02.875 30.928 2.755 42.012 5.725z" opacity=".9"/>
		<path d="M1071.16 593.335c12.876 3.45 21.616 8.497 26.757 15.312 10.163 13.456 5.698 32.864.526 55.332-9.292 40.384-22.029 95.694 42.516 153.639 20.826 18.696 29.002 29.56 26.507 35.213-2.719 6.165-16.727 4.772-34.465 3.005-25.643-2.546-57.557-5.724-62.03 14.154-6.595 29.285 10.138 34.549 27.862 40.128 10.644 3.347 21.645 6.817 26.211 16.146 3.535 7.219 2.862 17.182-2.067 30.461-23.69 63.852-110.647 180.248-172.198 178.029-23.47-.852-40.438-18.787-50.496-53.332-6.95-23.887-13.25-35.964-19.385-36.931-5.702-.906-11.589 7.718-18.406 17.714-8.774 12.862-18.717 27.444-32.767 28.798-8.623.83-17.506-3.41-27.166-12.97-11.647-11.526-22.592-16.9-33.43-16.437-19.139.817-35.708 20.295-51.732 39.129-23.99 28.186-48.79 57.344-84.287 29.942-49.469-38.198-76.695-116.437-19.562-197.945C692.907 819.5 815.993 769.02 874.337 776.112c19.945 2.421 34.713-.511 45.136-8.96 18.124-14.695 20.7-44.058 23.426-75.146 4.444-50.646 9.477-108.06 89.494-103.948 15.704.804 28.541 2.537 38.767 5.277z"/>
		<path d="M1058.013 620.871c11.785 3.158 19.787 7.78 24.495 14.017 9.297 12.322 5.204 30.103.464 50.689-8.525 37.046-20.2 87.778 38.97 140.925 19.07 17.129 26.556 27.065 24.278 32.228-2.476 5.619-15.301 4.347-31.536 2.73-23.523-2.336-52.8-5.247-56.914 13.023-6.056 26.9 9.308 31.735 25.566 36.854 9.745 3.065 19.824 6.237 23.997 14.772 3.234 6.609 2.61 15.724-1.902 27.891-21.715 58.54-101.405 165.247-157.796 163.228-21.473-.774-37.022-17.21-46.23-48.863-6.376-21.92-12.152-33.073-17.81-33.9-5.262-.833-10.66 7.09-16.922 16.27-8.035 11.785-17.145 25.145-30.003 26.384-7.876.763-16.014-3.12-24.852-11.87-10.688-10.585-20.727-15.517-30.682-15.089-17.56.755-32.759 18.62-47.456 35.902-21.976 25.835-44.703 52.562-77.183 27.455-45.325-35.003-70.259-106.71-17.9-181.428 72.734-103.809 185.536-150.098 238.996-143.608 18.3 2.225 31.847-.468 41.411-8.226 16.636-13.49 18.998-40.423 21.5-68.943 4.076-46.418 8.697-99.035 81.984-95.276 14.397.74 26.154 2.324 35.525 4.835z"/>
		<path d="M1044.86 648.405c10.7 2.867 17.962 7.06 22.232 12.721 8.436 11.186 4.715 27.34.408 46.054-7.76 33.703-18.383 79.86 35.427 128.215 17.306 15.55 24.105 24.568 22.048 29.234-2.234 5.071-13.875 3.918-28.611 2.452-21.404-2.121-48.046-4.77-51.795 11.895-5.521 24.516 8.465 28.917 23.274 33.58 8.846 2.784 17.992 5.666 21.778 13.404 2.929 5.996 2.361 14.275-1.736 25.316-19.745 53.229-92.167 150.263-143.402 148.429-19.47-.695-33.608-15.63-41.965-44.39-5.627-19.35-10.79-29.432-15.765-30.765a5.606 5.606 0 0 0-.463-.101c-4.816-.764-9.74 6.46-15.44 14.821-7.301 10.71-15.574 22.849-27.237 23.977-7.136.685-14.523-2.838-22.544-10.78-9.723-9.633-18.863-14.125-27.925-13.734-15.994.69-29.815 16.949-43.185 32.674-19.965 23.48-40.594 47.747-70.084 24.977-41.172-31.811-63.811-96.991-16.236-164.917 66.114-94.398 168.628-136.503 217.21-130.604 16.647 2.018 28.974-.436 37.688-7.503 15.134-12.288 17.292-36.793 19.569-62.741 3.714-42.193 7.91-90.013 74.476-86.61 13.08.673 23.764 2.115 32.278 4.396z"/>
		<path d="M1031.445 675.869c9.632 2.58 16.177 6.35 20.02 11.44 7.592 10.053 4.247 24.59.369 41.42-6.986 30.363-16.553 71.95 32.014 115.532 15.588 13.99 21.723 22.09 19.88 26.27-1.997 4.523-12.47 3.474-25.734 2.158-19.333-1.929-43.385-4.323-46.776 10.739-4.985 22.13 7.661 26.11 21.045 30.318 7.965 2.506 16.203 5.1 19.607 12.047 2.633 5.382 2.12 12.823-1.557 22.75-17.781 47.913-83.029 135.237-129.206 133.57-17.546-.646-30.259-14.074-37.801-39.948-5.245-18.002-10.131-27.098-14.698-27.84-4.38-.698-8.825 5.822-13.976 13.364-6.575 9.631-14.024 20.545-24.508 21.554-6.434.61-13.056-2.549-20.286-9.7-8.785-8.687-17.037-12.737-25.235-12.391-14.445.616-26.912 15.266-38.976 29.43-17.97 21.112-36.547 42.952-63.1 22.456-18.889-14.575-32.387-36.346-37.033-59.718-5.765-28.98 1.962-59.649 22.34-88.713 59.576-84.965 151.977-122.837 195.774-117.51 15.03 1.83 26.159-.382 34.027-6.756 13.667-11.073 15.602-33.15 17.647-56.532 3.326-37.965 7.096-80.996 67.062-77.905 11.797.604 21.429 1.909 29.101 3.965z"/>
		<path d="M1018.555 702.438c8.548 2.29 14.346 5.638 17.753 10.148 6.731 8.916 3.758 21.827.314 36.783-6.219 27.021-14.735 64.027 28.465 102.818 13.829 12.417 19.279 19.59 17.656 23.275-1.756 3.977-11.048 3.054-22.807 1.883-17.215-1.715-38.634-3.843-41.662 9.612-4.441 19.744 7.346 23.456 18.753 27.044 7.063 2.224 14.376 4.529 17.385 10.677 2.337 4.768 1.882 11.368-1.388 20.18-15.805 42.593-73.788 120.235-114.808 118.759-15.56-.554-26.844-12.498-33.534-35.47-4.528-15.548-8.698-23.65-12.737-24.733a2.873 2.873 0 0 0-.383-.08c-3.938-.628-7.908 5.19-12.496 11.918-5.834 8.551-12.453 18.25-21.735 19.143-5.698.549-11.574-2.27-17.981-8.602-7.822-7.746-15.172-11.355-22.483-11.043-12.87.553-23.968 13.59-34.702 26.206-15.958 18.752-32.45 38.156-56.01 19.97-16.774-12.956-28.763-32.292-32.889-53.07-5.11-25.75 1.755-53.015 19.86-78.85 52.957-75.545 135.071-109.227 173.99-104.5 13.385 1.63 23.294-.343 30.303-6.023 12.178-9.868 13.898-29.528 15.725-50.33 1.52-17.339 3.092-35.272 10.933-48.582 8.91-15.117 24.811-21.875 48.62-20.65l-.025.501.026-.502c10.48.538 19.042 1.692 25.857 3.518z"/>
	</g>
</svg>