<svg xmlns="http://www.w3.org/2000/svg" width="1161" height="646" viewBox="0 0 1161 646"><g fill="none" fill-rule="evenodd" stroke="#FF1C3B" opacity=".8"><path d="M1513.993 317.775c-6.405 36.321-18.23 61.655-35.822 77.517-34.783 31.361-89.184 23.75-152.175 14.943-112.465-15.727-266.488-37.269-409.205 152.634-47.134 62.722-74.425 87.043-91.246 81.318-18.27-6.217-17.81-45.229-17.226-94.623.83-70.327 1.87-157.848-52.624-165.21-80.711-10.893-91.014 35.67-101.916 84.973-6.663 30.138-13.556 61.304-38.408 76.282-19.178 11.558-46.88 12.13-84.699 1.745C349.986 497.742 10.154 287.24 1.448 117.864-1.902 52.985 43.38 1.853 136-34.117c63.239-24.56 94.535-44.373 95.708-60.926 1.068-15.122-24.864-29.668-52.318-45.074-37.519-21.044-80.035-44.9-87.204-83.526-4.4-23.722 5.165-49.339 29.222-78.315 28.544-34.376 40.568-65.3 36.73-94.54-6.762-51.682-63.82-92.216-119-131.412-83.314-59.181-169.472-120.386-102.42-224.893 47.299-73.735 122.647-130.059 206.727-154.53 104.198-30.324 218.907-11.896 331.724 53.293C804.36-663.809 972.163-338.662 966.734-177.085c-1.848 54.842 9.604 94.267 35.009 120.54 44.224 45.734 124.964 45.756 210.442 45.781 140.17.038 299.035.08 306.989 221.013 1.557 43.204-.117 78.801-5.181 107.526z" opacity=".1"/><path d="M1485.418 307.069c-6.21 35.217-17.678 59.779-34.73 75.155-33.72 30.401-86.477 23.017-147.56 14.476-109.069-15.254-258.442-36.146-396.847 147.998-45.703 60.809-72.161 84.387-88.462 78.839-17.707-6.028-17.262-43.85-16.696-91.73.806-68.2 1.806-153.077-51.056-160.213-78.289-10.573-88.273 34.587-98.853 82.396-6.463 29.227-13.144 59.44-37.234 73.957-18.595 11.201-45.454 11.752-82.124 1.686C356.633 481.524 27.081 277.416 18.63 113.195 15.39 50.293 59.29.727 149.1-34.153c61.343-23.818 91.728-43.198 92.828-59.086 1.033-14.667-24.118-28.78-50.748-43.72-36.378-20.405-77.61-43.535-84.555-80.978-4.265-23.007 5.001-47.832 28.328-75.92 27.68-33.335 39.334-63.32 35.623-91.684-6.563-50.12-61.9-89.425-115.42-127.431-80.79-57.388-164.323-116.715-99.325-218.043 45.868-71.49 118.93-126.096 200.466-149.82 101.044-29.402 212.282-11.527 321.684 51.684 319.234 184.453 481.974 499.718 476.704 656.384-1.786 53.179 9.326 91.414 33.964 116.891 42.894 44.356 121.195 44.377 204.094 44.403 135.923.039 289.978.085 297.696 214.288 1.51 41.891-.112 76.408-5.021 104.254z" opacity=".1"/><path d="M1456.895 296.066c-6.019 34.134-17.13 57.934-33.65 72.836-32.671 29.47-83.772 22.325-142.95 14.05-105.674-14.777-250.398-35.015-384.513 143.505-44.285 58.942-69.91 81.8-85.695 76.43-17.142-5.837-16.706-42.496-16.154-88.908.79-66.113 1.767-148.396-49.464-155.31-75.87-10.244-85.55 33.539-95.803 79.896-6.262 28.32-12.74 57.608-36.072 71.679-18.01 10.86-44.031 11.396-79.552 1.642C363.29 465.266 44.03 267.445 35.858 108.27 32.738 47.305 75.268-.744 162.267-34.55c59.439-23.097 88.867-41.846 89.954-57.305 1.001-14.237-23.368-27.916-49.172-42.396-35.24-19.777-75.18-42.19-81.903-78.477-4.138-22.29 4.847-46.353 27.448-73.577 26.83-32.32 38.12-61.397 34.527-88.898-6.357-48.592-59.97-86.685-111.818-123.528-78.259-55.615-159.184-113.12-96.205-211.322 44.438-69.304 115.23-122.241 194.22-145.244 97.89-28.505 205.659-11.194 311.636 50.065 309.27 178.774 466.901 484.353 461.79 636.217-1.74 51.554 9.026 88.62 32.895 113.32 41.565 42.992 117.432 43.006 197.75 43.027 131.676.028 280.917.054 288.378 207.674 1.455 40.608-.113 74.07-4.872 101.06z" opacity=".2"/><path d="M1428.318 285.368c-5.822 33.02-16.576 56.052-32.556 70.47-31.609 28.504-81.066 21.591-138.336 13.581-102.277-14.303-242.352-33.886-372.153 138.871-42.85 57.026-67.641 79.141-82.911 73.946-16.579-5.648-16.159-41.112-15.625-86.009.758-63.993 1.704-143.626-47.894-150.323-73.445-9.91-82.819 32.467-92.742 77.333-6.057 27.405-12.322 55.739-34.902 69.349-17.423 10.503-42.6 11.019-76.972 1.583-164.285-45.112-473.27-236.535-481.18-390.565C50.018 44.62 91.175-1.872 175.367-34.577c57.539-22.352 85.969-40.505 87.076-55.47.97-13.787-22.628-27.026-47.607-41.043-34.1-19.138-72.755-40.825-79.26-75.93-3.999-21.56 4.692-44.84 26.56-71.184 25.971-31.276 36.905-59.423 33.418-86.035-6.152-47.029-58.044-83.9-108.23-119.556-75.737-53.808-154.043-109.459-93.11-204.471 43.005-67.052 111.512-118.275 187.958-140.535 94.736-27.578 199.025-10.823 301.595 48.46 299.312 172.995 451.876 468.697 446.934 615.643-1.68 49.9 8.734 85.77 31.849 109.676 40.23 41.612 113.657 41.63 191.398 41.647 127.431.03 271.858.06 279.088 200.955 1.411 39.291-.112 71.667-4.718 97.788z" opacity=".2"/><path d="M1400.727 274.842c-5.628 31.916-16.018 54.174-31.468 68.104-30.55 27.544-78.359 20.859-133.716 13.12-98.88-13.83-234.305-32.768-359.792 134.227-41.415 55.113-65.382 76.485-80.131 71.467-16.014-5.45-15.604-39.724-15.09-83.115.732-61.86 1.642-138.846-46.328-145.323-71.017-9.589-80.081 31.387-89.675 74.761-5.86 26.484-11.917 53.868-33.73 67.02-16.842 10.15-41.176 10.65-74.399 1.528C377.578 433.018 78.875 247.989 71.225 99.118 68.303 42.099 108.079-2.818 189.46-34.43c55.63-21.608 83.125-39.251 84.186-53.63.941-13.342-21.872-26.143-46.03-39.699-32.965-18.491-70.325-39.454-76.616-73.378-3.858-20.82 4.537-43.332 25.671-68.787 25.107-30.236 35.675-57.443 32.31-83.181-5.952-45.466-56.127-81.11-104.643-115.578C31.125-520.69-44.593-574.46 14.323-666.3c41.57-64.809 107.791-114.314 181.687-135.822 91.583-26.661 192.4-10.46 291.56 46.842 289.355 167.224 436.853 453.04 432.074 595.077-1.625 48.23 8.45 82.915 30.799 106.03 38.897 40.226 109.888 40.243 185.05 40.265 123.182.03 262.8.065 269.788 194.23 1.368 37.98-.102 69.27-4.554 94.52z" opacity=".3"/><path d="M1371.167 263.964c-5.432 30.808-15.455 52.29-30.363 65.74-29.477 26.59-75.602 20.14-129.016 12.676-95.424-13.345-226.116-31.622-347.23 129.625-39.963 53.199-63.081 73.837-77.3 68.993-15.437-5.255-15.047-38.336-14.546-80.22.714-59.729 1.601-134.067-44.706-140.318-68.558-9.253-77.306 30.313-86.57 72.202-5.652 25.565-11.497 52-32.542 64.692-16.248 9.795-39.724 10.276-71.776 1.473C383.865 416.741 95.651 238.142 88.283 94.424c-2.815-55.03 35.564-98.391 114.092-128.916 53.687-20.866 80.276-37.82 81.255-51.799.908-12.896-21.11-25.254-44.427-38.344-31.8-17.848-67.85-38.08-73.915-70.817-3.726-20.11 4.375-41.824 24.773-66.396 24.236-29.197 34.44-55.464 31.19-80.324-5.742-43.906-54.16-78.311-100.984-111.593-70.631-50.198-143.675-102.108-86.836-190.747 40.115-62.565 104.02-110.363 175.323-131.136 88.373-25.736 185.656-10.109 281.323 45.198C769.287-569.033 911.59-293.116 906.967-156c-1.573 46.575 8.152 80.064 29.717 102.38 37.539 38.838 106.048 38.855 178.582 38.865 118.86.018 253.58.042 260.304 187.471 1.313 36.671-.105 66.874-4.403 91.248z" opacity=".3"/><path d="M1342.59 253.263c-5.236 29.7-14.9 50.41-29.269 63.37-28.419 25.633-72.9 19.41-124.4 12.212-92.033-12.872-218.067-30.497-334.872 124.985-38.533 51.29-60.816 71.178-74.526 66.517-14.867-5.06-14.485-36.955-14.002-77.329.682-57.603 1.532-129.287-43.143-135.317-66.132-8.928-74.573 29.228-83.504 69.63-5.45 24.645-11.086 50.125-31.37 62.362-15.667 9.442-38.3 9.907-69.203 1.418-147.785-40.586-425.723-212.787-432.835-351.356-2.725-53.023 34.29-94.851 110.012-124.277 51.792-20.124 77.461-36.548 78.371-49.963.877-12.446-20.364-24.367-42.856-36.99-30.665-17.211-65.425-36.715-71.275-68.276-3.593-19.376 4.22-40.31 23.884-63.998 23.377-28.16 33.215-53.492 30.081-77.465-5.538-42.344-52.235-75.52-97.393-107.612-68.109-48.4-138.541-98.433-83.743-183.891 38.68-60.327 100.305-106.405 169.063-126.43 85.21-24.816 179.019-9.744 271.279 43.587C762.14-549.922 899.377-283.888 894.922-151.68c-1.51 44.91 7.865 77.208 28.668 98.729 36.21 37.46 102.28 37.472 172.235 37.487 114.615.025 244.521.053 251.01 180.747 1.27 35.355-.101 64.484-4.244 87.98z" opacity=".4"/><path d="M1314.015 242.564c-5.04 28.586-14.351 48.524-28.181 61.003-27.356 24.669-70.19 18.683-119.78 11.745-88.637-12.393-210.026-29.365-322.52 120.345-37.097 49.378-58.548 68.528-71.737 64.04-14.304-4.872-13.938-35.573-13.476-74.441.657-55.47 1.476-124.506-41.571-130.316-63.705-8.603-71.837 28.152-80.442 67.061-5.244 23.73-10.669 48.262-30.2 60.033-15.076 9.091-36.869 9.534-66.623 1.36C397.168 384.315 129.505 218.5 122.657 85.088c-2.62-51.075 33.018-91.311 105.926-119.635 49.88-19.385 74.617-35.134 75.488-48.127.843-12-19.622-23.482-41.285-35.642-29.529-16.568-62.998-35.353-68.63-65.728-3.455-18.65 4.063-38.798 22.994-61.602 22.515-27.124 31.997-51.523 28.973-74.606-5.338-40.781-50.312-72.739-93.808-103.644-65.586-46.597-133.407-94.782-80.65-177.033 37.253-58.077 96.589-102.443 162.801-121.72 82.056-23.89 172.389-9.377 261.233 41.977 259.3 149.864 391.465 406.016 387.183 533.312-1.462 43.249 7.572 74.352 27.614 95.078 34.879 36.079 98.517 36.094 165.886 36.108 110.365.026 235.461.059 241.714 174.027 1.226 34.039-.092 62.084-4.081 84.71z" opacity=".4"/><path d="M1285.44 231.86c-4.846 27.482-13.794 46.645-27.094 58.637-26.294 23.713-67.479 17.955-115.162 11.287-85.241-11.92-201.98-28.246-310.16 115.706-35.663 47.46-56.286 65.868-68.958 61.556-13.736-4.674-13.389-34.181-12.944-71.539.63-53.349 1.416-119.734-39.998-125.328-61.288-8.27-69.105 27.075-77.382 64.498-5.044 22.802-10.261 46.382-29.032 57.694-14.488 8.735-35.44 9.165-64.045 1.31-136.853-37.579-394.234-196.997-400.83-325.259-2.538-49.066 31.74-87.764 101.843-114.998 47.973-18.63 71.693-33.805 72.609-46.29.812-11.55-18.872-22.595-39.716-34.289-28.392-15.93-60.577-33.985-65.987-63.181-3.32-17.922 3.905-37.29 22.106-59.205 21.655-26.08 30.77-49.556 27.86-71.748-5.133-39.222-48.386-69.952-90.217-99.666-63.064-44.796-128.257-91.124-77.556-170.183 35.817-55.835 92.873-98.482 156.536-117.012 78.898-22.964 165.765-9.008 251.19 40.362 249.347 144.091 376.442 390.366 372.33 512.744-1.396 41.59 7.293 71.5 26.57 91.438 33.546 34.696 94.746 34.71 159.541 34.726 106.116.031 226.4.06 232.417 167.302 1.177 32.73-.087 59.692-3.922 81.438z" opacity=".5"/><path d="M1257.902 221.03c-4.655 26.399-13.244 44.813-26.007 56.332-25.249 22.776-64.777 17.25-110.56 10.846-81.842-11.442-193.931-27.114-297.824 111.219-34.24 45.595-54.033 63.28-66.186 59.143-13.178-4.484-12.832-32.826-12.407-68.708.617-51.261 1.374-115.06-38.408-120.432-58.866-7.943-66.379 26.03-74.331 61.991-4.847 21.911-9.852 44.56-27.868 55.425-13.908 8.392-34.016 8.805-61.472 1.26C411.455 352.022 164.365 198.896 158.052 75.68c-2.407-47.14 30.482-84.312 97.78-110.482 46.073-17.91 68.888-32.485 69.73-44.503.788-11.114-18.119-21.73-38.14-32.964-27.252-15.297-58.14-32.639-63.332-60.675-3.191-17.219 3.752-35.82 21.223-56.873 20.8-25.065 29.559-47.623 26.763-68.953-4.922-37.697-46.451-67.216-86.616-95.768C124.932-437.56 62.35-482.059 111.026-558c34.39-53.646 89.166-94.627 150.294-112.435 75.75-22.074 159.138-8.676 241.15 38.75 239.374 138.4 361.372 374.992 357.403 492.57-1.345 39.967 6.995 68.706 25.504 87.864 32.216 33.34 90.981 33.348 153.196 33.354 101.875.016 217.348.034 223.104 160.69 1.128 31.447-.091 57.343-3.775 78.238z" opacity=".5"/><path d="M1229.285 210.56c-4.456 25.27-12.679 42.895-24.91 53.918-24.18 21.801-62.067 16.5-105.934 10.367-78.448-10.971-185.891-26.001-285.446 106.46-32.803 43.641-51.762 60.579-63.398 56.614-12.609-4.283-12.288-31.422-11.88-65.772.577-49.096 1.298-110.194-36.856-115.347-56.442-7.625-63.64 24.918-71.256 59.371-4.64 20.967-9.435 42.654-26.689 53.049-13.324 8.031-32.588 8.42-58.896 1.197-125.922-34.573-362.749-181.23-368.815-299.21-2.321-45.131 29.198-80.714 93.678-105.75 44.167-17.152 66.094-31.132 66.844-42.631.754-10.662-17.378-20.831-36.572-31.597-26.116-14.652-55.72-31.259-60.693-58.094-3.061-16.469 3.586-34.274 20.326-54.433 19.933-24.001 28.32-45.61 25.646-66.043-4.727-36.109-44.538-64.384-83.043-91.73-58.01-41.202-117.994-83.802-71.354-156.51 64.752-100.928 209.759-166.036 375.116-70.488C734.586-473.505 851.541-246.95 847.755-134.364c-1.287 38.274 6.72 65.805 24.468 84.16 30.886 31.934 87.21 31.952 146.844 31.971 97.628.03 208.286.062 213.825 153.88 1.084 30.105-.08 54.906-3.607 74.912z" opacity=".6"/><path d="M1200.762 199.56c-4.265 24.187-12.136 41.053-23.836 51.607-23.125 20.865-59.361 15.799-101.318 9.928-75.053-10.49-177.843-24.865-273.113 101.974-31.38 41.775-49.513 57.985-60.626 54.2-12.04-4.1-11.731-30.067-11.339-62.943.561-47.013 1.258-105.524-35.27-110.455-54.02-7.29-60.908 23.872-68.206 56.876-4.442 20.067-9.028 40.822-25.523 50.775-12.742 7.68-31.164 8.056-56.323 1.144-120.451-33.08-346.978-173.442-352.77-286.38-2.217-43.201 27.935-77.252 89.614-101.224 42.262-16.436 63.192-29.85 63.974-40.846.717-10.228-16.634-19.967-35.001-30.274-24.978-14.023-53.287-29.912-58.046-55.592-2.924-15.76 3.438-32.803 19.447-52.09 19.079-22.987 27.113-43.682 24.554-63.256-4.52-34.58-42.607-61.647-79.443-87.826-55.476-39.433-112.853-80.207-68.237-149.788 61.95-96.625 200.664-158.97 358.83-67.528 219.462 126.878 331.314 343.755 327.678 451.53-1.232 36.653 6.421 63.012 23.405 80.587 29.551 30.582 83.445 30.59 140.495 30.598 93.386.016 199.233.03 204.515 147.267 1.03 28.82-.084 52.561-3.461 71.716z" opacity=".6"/><path d="M1172.185 188.862c-4.069 23.078-11.577 39.168-22.737 49.236-22.068 19.909-56.656 15.07-96.71 9.468-71.656-10.021-169.802-23.742-260.758 97.332-29.94 39.858-47.245 55.326-57.842 51.72-11.479-3.911-11.185-28.683-10.809-60.053.537-44.883 1.197-100.746-33.694-105.45-51.599-6.97-58.182 22.793-65.144 54.297-4.241 19.152-8.619 38.956-24.357 48.443-12.156 7.332-29.734 7.684-53.75 1.094C431.401 303.369 215.15 169.4 209.621 61.619c-2.108-41.22 26.66-73.707 85.525-96.585 40.371-15.688 60.351-28.502 61.09-39.01.69-9.772-15.883-19.075-33.426-28.919-23.843-13.38-50.862-28.542-55.403-53.04-2.789-15.039 3.284-31.298 18.559-49.698 18.224-21.948 25.89-41.716 23.44-60.395-4.316-33.017-40.685-58.861-75.856-83.849-52.953-37.639-107.699-76.55-65.139-142.935 59.132-92.213 191.54-151.704 342.526-64.43C720.442-436.14 827.23-229.149 823.767-126.287c-1.18 34.995 6.128 60.16 22.35 76.94 28.222 29.198 79.676 29.205 134.148 29.219 89.142.018 190.17.039 195.219 140.54.99 27.514-.076 50.173-3.299 68.449z" opacity=".7"/><path d="M1143.61 178.161c-3.874 21.97-11.025 37.293-21.65 46.874-21.01 18.948-53.949 14.337-92.086 9.006-68.264-9.548-161.759-22.623-248.401 92.687-28.514 37.944-44.98 52.67-55.058 49.242-10.913-3.715-10.633-27.301-10.28-57.16.51-42.758 1.137-95.965-32.125-100.459-49.177-6.636-55.445 21.718-62.084 51.738-4.033 18.228-8.203 37.082-23.18 46.11-11.573 6.97-28.309 7.314-51.175 1.033-109.52-30.076-315.49-157.644-320.761-260.276-2.017-39.244 25.387-70.166 81.444-91.945 38.461-14.94 57.524-27.139 58.206-37.17.656-9.326-15.133-18.192-31.856-27.57-22.702-12.742-48.436-27.176-52.758-50.492-2.65-14.318 3.124-29.786 17.669-47.3 17.36-20.909 24.66-39.727 22.333-57.54-4.116-31.455-38.765-56.067-72.272-79.877-50.433-35.827-102.571-72.89-62.047-136.07 56.313-87.802 182.419-144.443 326.22-61.34C713.306-417.014 815.018-219.907 811.72-121.964c-1.123 33.34 5.85 57.31 21.304 73.298 26.893 27.812 75.906 27.826 127.8 27.837 84.897.024 181.112.044 185.924 133.814.943 26.197-.07 47.776-3.139 65.176z" opacity=".7"/><path d="M1115.033 167.464c-3.679 20.86-10.465 35.404-20.558 44.508-19.95 17.982-51.236 13.605-87.469 8.538-64.873-9.07-153.71-21.494-236.04 88.047-27.08 36.03-42.714 50.02-52.28 46.762-10.342-3.52-10.08-25.917-9.745-54.262.48-40.632 1.077-91.192-30.558-95.461-46.75-6.311-52.708 20.637-59.02 49.16-3.828 17.314-7.786 35.218-22.01 43.785-10.983 6.623-26.88 6.94-48.597.979C444.705 270.948 249.012 149.766 244 52.293c-1.922-37.236 24.105-66.624 77.36-87.307 36.548-14.196 54.633-25.817 55.318-35.333.626-8.877-14.388-17.302-30.285-26.217-21.562-12.1-46.005-25.815-50.11-47.945-2.524-13.594 2.969-28.277 16.775-44.903 16.497-19.864 23.445-37.753 21.229-54.68-3.916-29.896-36.843-53.28-68.689-75.9-47.902-34.023-97.457-69.202-58.944-129.221 53.49-83.383 173.289-137.175 309.909-58.236C706.16-397.896 802.807-210.671 799.682-117.638c-1.066 31.675 5.556 54.454 20.25 69.646 25.558 26.434 72.14 26.449 121.452 26.46 80.648.02 172.052.05 176.629 127.092.895 24.876-.066 45.374-2.98 61.904z" opacity=".7"/><path d="M1086.457 156.762c-3.483 19.755-9.907 33.527-19.464 42.136-18.892 17.025-48.536 12.884-82.856 8.083-61.476-8.601-145.668-20.375-223.682 83.401-25.647 34.117-40.453 47.364-49.5 44.286-9.78-3.33-9.529-24.533-9.215-51.372.455-38.497 1.02-86.409-28.986-90.462-44.328-5.987-49.976 19.555-55.96 46.596-3.625 16.392-7.376 33.342-20.835 41.45-10.4 6.266-25.452 6.566-46.021.919-98.584-27.067-284.003-141.85-288.758-234.173-1.824-35.272 22.84-63.082 73.28-82.667 34.647-13.446 51.816-24.437 52.433-33.492.596-8.431-13.641-16.42-28.714-24.872-20.426-11.457-43.584-24.446-47.47-45.399-2.382-12.863 2.808-26.764 15.89-42.504 15.643-18.826 22.222-35.78 20.116-51.821-3.712-28.332-34.917-50.493-65.098-71.92-45.384-32.227-92.299-65.57-55.856-122.362 50.673-78.976 164.169-129.913 293.601-55.145C699.011-378.772 790.596-201.43 787.636-113.317c-1.008 30.014 5.269 51.602 19.199 66.004 24.23 25.047 68.372 25.06 115.11 25.077 76.4.026 162.991.056 167.337 120.367.85 23.568-.065 42.98-2.825 58.63z"/><path d="M1057.88 146.066c-3.287 18.643-9.357 31.642-18.367 39.77-17.814 16.069-45.774 12.162-78.154 7.636-58.016-8.116-137.47-19.23-211.113 78.798-24.197 32.206-38.151 44.705-46.673 41.81-9.204-3.136-8.964-23.144-8.662-48.475.428-36.367.974-81.63-27.374-85.453-41.86-5.65-47.196 18.482-52.844 44.032-3.422 15.469-6.96 31.473-19.65 39.122-9.807 5.911-23.997 6.194-43.4.869-93.015-25.545-267.944-133.892-272.418-221.056-1.71-33.295 21.548-59.554 69.132-78.043 32.71-12.707 48.832-23.093 49.507-31.664.562-7.986-12.875-15.525-27.11-23.513-19.268-10.815-41.107-23.066-44.77-42.837-2.244-12.133 2.654-25.25 14.993-40.116 14.767-17.789 20.976-33.802 18.995-48.96-3.502-26.768-32.95-47.694-61.431-67.929-42.804-30.418-87.071-61.877-52.682-115.5 47.82-74.566 154.9-122.673 277.004-52.09C692.355-359.56 778.74-192.128 775.941-108.929c-.954 28.349 4.97 48.745 18.118 62.347 22.87 23.66 64.537 23.67 108.64 23.681 72.077.01 153.767.029 157.847 113.603.8 22.26-.06 40.583-2.666 55.363z"/><path d="M1029.303 135.37c-3.091 17.534-8.797 29.758-17.27 37.405-16.755 15.107-43.071 11.428-73.543 7.167-54.62-7.643-129.425-18.102-198.755 74.16-22.76 30.29-35.887 42.05-43.888 39.327-8.64-2.938-8.418-21.76-8.137-45.586.408-34.235.913-76.843-25.8-80.445-39.436-5.326-44.462 17.4-49.785 41.458-3.216 14.554-6.545 29.599-18.475 36.793-9.225 5.557-22.577 5.823-40.826.808C465.271 222.42 300.62 120.46 296.404 38.454c-1.609-31.325 20.28-56.007 65.051-73.394 30.797-11.968 46.077-21.654 46.624-29.831.529-7.54-11.55-14.32-25.534-22.168-18.137-10.169-38.685-21.701-42.132-40.286-2.114-11.405 2.5-23.741 14.1-37.72 13.906-16.738 19.76-31.814 17.892-46.103-3.303-25.205-31.03-44.903-57.852-63.957-40.279-28.615-81.922-58.191-49.583-108.634 45-70.155 145.777-115.416 260.702-48.998C685.206-340.44 766.526-182.89 763.894-104.601c-.897 26.688 4.688 45.89 17.073 58.701 21.541 22.278 60.763 22.285 102.29 22.298 67.827.016 144.708.035 148.553 106.877.753 20.943-.055 38.19-2.507 52.095z"/><path d="M1000.78 124.368c-2.902 16.459-8.248 27.925-16.191 35.095-15.703 14.174-40.366 10.725-68.929 6.731-51.225-7.157-121.38-16.966-186.421 69.672-21.334 28.424-33.636 39.466-41.12 36.912-8.073-2.75-7.862-20.4-7.587-42.752.383-32.154.866-72.17-24.218-75.554-37.01-4.998-41.732 16.355-46.733 38.96-3.021 13.654-6.143 27.775-17.318 34.517-8.64 5.211-21.148 5.464-38.249.765-82.081-22.548-236.44-118.208-240.374-195.179-1.494-29.38 19.02-52.55 60.987-68.873 28.896-11.242 43.201-20.421 43.75-28.048.5-7.1-10.838-13.465-23.965-20.84-16.994-9.54-36.251-20.355-39.475-37.783-1.982-10.691 2.342-22.267 13.22-35.377 13.044-15.73 18.542-29.9 16.791-43.314-3.091-23.68-29.094-42.17-54.246-60.057-37.752-26.838-76.786-54.606-46.466-101.912 42.201-65.856 136.686-108.347 244.41-46.036 149.568 86.513 225.792 234.374 223.306 307.857-.846 25.065 4.388 43.101 16.005 55.127 20.21 20.926 56.998 20.932 95.944 20.93 63.585.001 135.656.006 139.24 100.268.7 19.65-.06 35.841-2.36 48.891z" opacity=".9"/><path d="M972.204 113.67c-2.706 15.345-7.688 26.036-15.098 32.723-14.64 13.22-37.66 10.002-64.31 6.273-47.832-6.688-113.342-15.848-174.065 65.03-19.907 26.506-31.37 36.802-38.336 34.434-7.511-2.558-7.31-19.018-7.062-39.86.36-30.027.806-67.391-22.645-70.56-34.593-4.666-39 15.278-43.671 36.396-2.815 12.73-5.728 25.897-16.142 32.183-8.053 4.855-19.723 5.09-35.674.706-76.614-21.044-220.696-110.31-224.374-182.126-1.394-27.379 17.738-49.006 56.902-64.233 26.991-10.498 40.297-19.075 40.865-26.207.47-6.655-10.123-12.602-22.39-19.49-15.857-8.902-33.824-18.99-36.83-35.236-1.847-9.967 2.192-20.757 12.33-32.98 12.19-14.692 17.318-27.923 15.679-40.454-2.887-22.12-27.172-39.384-50.66-56.08-35.227-25.044-71.658-50.937-43.366-95.063 39.378-61.437 127.555-101.078 228.104-42.935 139.613 80.737 210.764 218.723 208.452 287.287-.793 23.405 4.096 40.245 14.955 51.48 18.878 19.539 53.225 19.543 89.592 19.548 59.34.007 126.597.016 129.945 93.541.66 18.344-.054 33.448-2.201 45.623z" opacity=".9"/><path d="M943.628 102.97c-2.51 14.236-7.135 24.16-14.006 30.361-13.586 12.252-34.953 9.268-59.694 5.805-44.436-6.214-105.292-14.723-161.705 60.39-18.476 24.591-29.107 34.146-35.557 31.953-6.94-2.363-6.758-17.633-6.531-36.965.335-27.901.75-62.614-21.07-65.562-32.17-4.341-36.27 14.196-40.608 33.823-2.613 11.814-5.315 24.031-14.976 29.856-7.466 4.503-18.288 4.714-33.096.652-71.149-19.545-204.948-102.42-208.367-169.08-1.3-25.416 16.468-45.462 52.812-59.592 25.087-9.752 37.498-17.64 37.986-24.37.435-6.205-9.41-11.73-20.819-18.136-14.718-8.259-31.4-17.625-34.19-32.69-1.715-9.237 2.03-19.24 11.44-30.581 11.326-13.648 16.094-25.946 14.575-37.599-2.688-20.55-25.252-36.589-47.072-52.101-32.706-23.238-66.536-47.27-40.274-88.204 36.56-57.025 118.432-93.822 211.798-39.84 129.654 74.958 195.74 203.06 193.591 266.714-.731 21.74 3.818 37.391 13.914 47.831 17.543 18.16 49.459 18.164 83.24 18.172 55.095.005 117.538.014 120.651 86.812.611 17.03-.05 31.05-2.042 42.35z" opacity=".9"/><path d="M915.05 92.276c-2.314 13.127-6.58 22.274-12.92 27.989-12.52 11.297-32.243 8.54-55.076 5.347-41.04-5.737-97.25-13.605-149.349 55.745-16.81 22.376-26.92 31.467-32.769 29.475-6.378-2.171-6.211-16.247-5.997-34.072.301-25.768.686-57.837-19.506-60.561-29.748-4.017-33.534 13.111-37.548 31.254-2.406 10.895-4.904 22.157-13.8 27.519-6.883 4.15-16.867 4.348-30.525.595-65.674-18.034-189.205-94.516-192.36-156.026-1.196-23.455 15.192-41.922 48.729-54.953 23.19-9.006 34.672-16.333 35.1-22.53.407-5.759-8.699-10.872-19.25-16.792-13.578-7.62-28.97-16.253-31.545-30.132-1.578-8.517 1.873-17.737 10.554-28.193 10.467-12.608 14.866-23.979 13.46-34.736-2.482-18.994-23.33-33.803-43.488-48.125-30.17-21.441-61.379-43.605-37.175-81.356 33.741-52.61 109.31-86.551 195.488-36.74 119.707 69.19 180.723 187.408 178.743 246.147-.674 20.08 3.534 34.537 12.859 44.184 16.219 16.774 45.694 16.782 76.902 16.787 50.841.014 108.476.023 111.352 80.094.568 15.715-.04 28.654-1.878 39.08z"/><path d="M886.474 81.579c-2.118 12.015-6.026 20.39-11.828 25.623-11.466 10.336-29.536 7.808-50.456 4.88-37.648-5.263-89.205-12.472-136.992 51.104-15.402 20.49-24.648 28.814-29.99 26.995-5.813-1.977-5.664-14.864-5.468-31.178.277-23.638.625-53.056-17.934-55.563-27.326-3.688-30.802 12.038-34.485 28.681-2.204 9.975-4.486 20.292-12.625 25.193-6.301 3.798-15.436 3.971-27.95.536-60.21-16.53-173.457-86.616-176.36-142.969-1.1-21.46 13.917-38.381 44.648-50.313 21.281-8.262 31.888-14.988 32.218-20.697.371-5.314-7.991-10.002-17.682-15.44-12.441-6.977-26.544-14.888-28.899-27.589-1.446-7.78 1.712-16.224 9.659-25.792 9.613-11.57 13.651-22 12.357-31.88-2.283-17.427-21.404-31.011-39.9-44.147-27.653-19.64-56.26-39.951-34.079-74.495 30.92-48.204 100.181-79.292 179.178-33.645 109.753 63.41 165.697 171.748 163.891 225.57-.622 18.424 3.242 31.685 11.805 40.537 14.888 15.396 41.924 15.402 70.554 15.409 46.596.015 99.416.033 102.058 73.369.518 14.406-.035 26.256-1.72 35.81z"/><path d="M857.899 70.875c-1.924 10.91-5.468 18.51-10.736 23.257-10.408 9.378-26.825 7.08-45.842 4.42-34.252-4.794-81.16-11.352-124.64 46.466-13.983 18.597-22.374 26.156-27.2 24.513-5.248-1.784-5.113-13.481-4.938-28.29.248-21.507.565-48.277-16.363-50.56-24.904-3.363-28.07 10.953-31.424 26.113-2.002 9.054-4.076 18.417-11.455 22.863-5.718 3.44-14.014 3.596-25.371.477-54.747-15.031-157.724-78.72-160.362-129.92-1.005-19.456 12.64-34.843 40.564-45.674 18.785-7.292 28.378-13.314 29.273-18.387.028-.16.046-.312.06-.47.342-4.864-7.285-9.14-16.11-14.09-11.306-6.34-24.119-13.523-26.26-25.043-1.304-7.049 1.562-14.715 8.774-23.398 8.75-10.525 12.428-20.022 11.248-29.015-2.081-15.874-19.482-28.225-36.313-40.174-25.13-17.842-51.103-36.278-30.99-67.64 28.101-43.788 91.06-72.021 162.874-30.548 99.8 57.635 150.68 156.09 149.038 205.001-.56 16.76 2.96 28.825 10.76 36.89 13.56 14.006 38.16 14.02 64.207 14.027 42.356.022 90.36.035 92.77 66.644.471 13.09-.034 23.858-1.564 32.538z"/><path d="M829.37 59.906c-1.731 9.819-4.916 16.668-9.651 20.94-9.354 8.44-24.128 6.374-41.23 3.977-30.857-4.313-73.12-10.219-112.303 41.962-12.578 16.748-20.113 23.566-24.437 22.095-4.68-1.596-4.548-12.121-4.393-25.45.236-19.427.525-43.596-14.775-45.66-22.481-3.038-25.342 9.907-28.368 23.606-1.803 8.154-3.668 16.586-10.292 20.583-5.133 3.092-12.59 3.23-22.8.431-49.28-13.538-141.958-70.926-144.323-117.073-.885-17.535 11.383-31.37 36.501-41.139 17.477-6.793 26.113-12.454 26.455-17.068.312-4.424-6.57-8.284-14.532-12.759-10.168-5.71-21.69-12.18-23.609-22.536-1.168-6.355 1.402-13.228 7.895-21.054 7.89-9.509 11.205-18.082 10.145-26.218-1.872-14.336-17.553-25.48-32.714-36.263-22.599-16.061-45.975-32.665-27.87-60.903 12.872-20.087 33.384-35.432 56.262-42.097 28.368-8.269 59.593-3.244 90.322 14.523C635.488-208.253 681.27-119.504 679.78-75.41c-.513 15.132 2.661 26.026 9.697 33.309 12.221 12.65 34.383 12.653 57.854 12.652 38.11.004 81.306.01 83.454 60.018.426 11.804-.034 21.513-1.414 29.336z"/><path d="M801.779 49.38c-1.537 8.715-4.367 14.783-8.562 18.57-8.296 7.482-21.417 5.646-36.616 3.518-27.46-3.84-65.068-9.099-99.946 37.318-11.164 14.859-17.836 20.913-21.648 19.617-4.114-1.402-4.005-10.739-3.863-22.556.208-17.298.46-38.821-13.207-40.665-20.056-2.704-22.727 9.362-25.307 21.039-1.6 7.23-3.258 14.715-9.12 18.248-4.547 2.745-11.161 2.866-20.225.377C519.477 92.813 437.077 41.818 434.972.825c-.804-15.548 10.11-27.83 32.412-36.498 15.094-5.866 22.803-10.726 23.529-14.844.023-.13.041-.26.046-.388.283-3.978-5.858-7.426-12.961-11.41-9.028-5.066-19.267-10.815-20.965-19.984-1.043-5.628 1.253-11.728 7.002-18.662 7.035-8.468 9.99-16.104 9.041-23.36-1.672-12.773-15.627-22.692-29.13-32.286-20.072-14.263-40.839-29-24.776-54.057 11.445-17.839 29.663-31.467 50.001-37.388 25.207-7.335 52.967-2.872 80.281 12.912 79.874 46.17 120.585 125.037 119.267 164.22-.457 13.476 2.373 23.175 8.642 29.662 10.891 11.272 30.626 11.273 51.51 11.28 17.404.003 35.406.005 49.349 6.656 15.836 7.56 23.954 22.81 24.81 46.636l-.503.019.502-.019c.378 10.488-.025 19.118-1.25 26.065z"/></g></svg>